<?xml version="1.0" encoding="utf-8"?>
<!-- Generator: Adobe Illustrator 21.1.0, SVG Export Plug-In . SVG Version: 6.00 Build 0)  -->
<svg version="1.1" id="Layer_1" xmlns="http://www.w3.org/2000/svg" xmlns:xlink="http://www.w3.org/1999/xlink" x="0px" y="0px"
	 viewBox="0 0 256 78" style="enable-background:new 0 0 256 78;" xml:space="preserve">
<style type="text/css">
	.st0{stroke:#12100B;}
	.st1{fill:none;stroke:#12100B;stroke-width:2;stroke-miterlimit:10;}
</style>
<path d="M152,448.7v2.7h-23.8v18.3H148v2.7h-19.8v18.9H152v2.7h-27.1v-45.3H152z"/>
<path d="M203.1,471.3c0,3.5-0.5,6.7-1.6,9.5c-1,2.8-2.5,5.3-4.4,7.3c-1.9,2-4.2,3.6-6.8,4.7c-2.6,1.1-5.6,1.6-8.8,1.6
	c-3.2,0-6.1-0.5-8.7-1.6c-2.6-1.1-4.9-2.7-6.8-4.7c-1.9-2-3.4-4.4-4.4-7.3c-1.1-2.8-1.6-6-1.6-9.5c0-3.5,0.5-6.6,1.6-9.5
	c1.1-2.8,2.5-5.3,4.4-7.3c1.9-2,4.2-3.6,6.8-4.7c2.6-1.1,5.6-1.7,8.7-1.7c3.2,0,6.2,0.5,8.8,1.6c2.6,1.1,4.9,2.7,6.8,4.7
	c1.9,2,3.4,4.5,4.4,7.3C202.5,464.7,203.1,467.8,203.1,471.3z M199.7,471.3c0-3.2-0.4-6-1.3-8.5c-0.9-2.5-2.1-4.7-3.7-6.4
	c-1.6-1.7-3.5-3.1-5.7-4s-4.7-1.4-7.5-1.4c-2.7,0-5.1,0.5-7.4,1.4s-4.1,2.3-5.8,4c-1.6,1.7-2.9,3.9-3.7,6.4
	c-0.9,2.5-1.3,5.4-1.3,8.5c0,3.2,0.4,6,1.3,8.5c0.9,2.5,2.1,4.6,3.7,6.4c1.6,1.7,3.5,3.1,5.8,4c2.2,0.9,4.7,1.4,7.4,1.4
	c2.7,0,5.2-0.5,7.5-1.4c2.2-0.9,4.2-2.3,5.7-4c1.6-1.7,2.8-3.9,3.7-6.4C199.2,477.3,199.7,474.5,199.7,471.3z"/>
<path d="M235.6,454.2c-0.2,0.4-0.5,0.5-0.8,0.5c-0.3,0-0.6-0.2-1.1-0.6c-0.4-0.4-1-0.8-1.8-1.3c-0.7-0.5-1.7-0.9-2.8-1.3
	c-1.1-0.4-2.5-0.6-4.2-0.6c-1.6,0-3.1,0.2-4.3,0.7c-1.3,0.5-2.3,1.1-3.1,1.9c-0.8,0.8-1.5,1.7-1.9,2.8c-0.4,1.1-0.7,2.2-0.7,3.4
	c0,1.5,0.3,2.8,1,3.8c0.7,1,1.5,1.9,2.6,2.6c1.1,0.7,2.3,1.3,3.6,1.8s2.8,1,4.2,1.4c1.4,0.5,2.8,1,4.2,1.6c1.4,0.6,2.6,1.3,3.6,2.1
	c1.1,0.9,1.9,1.9,2.6,3.2c0.7,1.2,1,2.8,1,4.7c0,1.9-0.3,3.7-1,5.4c-0.7,1.7-1.6,3.1-2.8,4.4s-2.8,2.2-4.5,2.9s-3.8,1.1-6.1,1.1
	c-3,0-5.6-0.5-7.7-1.6c-2.2-1.1-4-2.5-5.7-4.3l0.9-1.4c0.3-0.3,0.6-0.5,0.9-0.5c0.2,0,0.4,0.1,0.7,0.4c0.3,0.3,0.7,0.6,1.1,0.9
	c0.4,0.4,0.9,0.8,1.5,1.2c0.6,0.4,1.3,0.8,2.1,1.2c0.8,0.4,1.7,0.7,2.7,0.9c1,0.3,2.2,0.4,3.5,0.4c1.8,0,3.4-0.3,4.8-0.8
	s2.6-1.3,3.6-2.2c1-0.9,1.7-2.1,2.2-3.3c0.5-1.3,0.8-2.7,0.8-4.1c0-1.6-0.3-2.9-1-4c-0.7-1-1.5-1.9-2.6-2.6s-2.3-1.3-3.6-1.7
	s-2.8-0.9-4.2-1.4c-1.4-0.4-2.8-0.9-4.2-1.5s-2.6-1.3-3.6-2.1c-1.1-0.9-1.9-1.9-2.6-3.2c-0.7-1.3-1-2.9-1-4.8c0-1.5,0.3-3,0.9-4.4
	c0.6-1.4,1.4-2.7,2.5-3.7c1.1-1.1,2.5-1.9,4.1-2.6c1.6-0.7,3.5-1,5.6-1c2.3,0,4.5,0.4,6.3,1.1c1.9,0.7,3.6,1.9,5.1,3.4L235.6,454.2z
	"/>
<path class="st0" d="M-102.8,494.3H-80v0.7h-23.6v-44.8h0.8V494.3z"/>
<path class="st0" d="M-69,495h-0.8v-44.8h0.8V495z"/>
<path class="st0" d="M-24.1,492.9l11.9,12.5h-0.7c-0.2,0-0.3,0-0.4-0.1c-0.1-0.1-0.2-0.1-0.6-0.6l-11.2-11.9"/>
<path class="st0" d="M14.5,494.9c2.4,0,4.6-0.4,6.5-1.3c1.9-0.9,3.5-2,4.8-3.5c1.3-1.5,2.3-3.2,3-5.2c0.7-2,1.1-4.1,1.1-6.4v-28.2
	h0.8v28.2c0,2.4-0.4,4.6-1.1,6.7c-0.7,2.1-1.8,3.9-3.2,5.5c-1.4,1.6-3.1,2.8-5.1,3.7c-2,0.9-4.2,1.4-6.7,1.4c-2.5,0-4.7-0.5-6.7-1.4
	c-2-0.9-3.7-2.1-5.1-3.7c-1.4-1.6-2.5-3.4-3.2-5.5c-0.7-2.1-1.1-4.3-1.1-6.7v-28.2h0.8v28.1c0,2.3,0.4,4.4,1.1,6.4
	c0.7,2,1.7,3.8,3,5.3c1.3,1.5,2.9,2.7,4.8,3.6C10,494.5,12.1,494.9,14.5,494.9z"/>
<path class="st0" d="M47.8,495H47v-44.8h0.8V495z"/>
<path class="st0" d="M101.2,472.6c0,3.5-0.5,6.7-1.5,9.5c-1,2.8-2.4,5.1-4.3,7c-1.8,1.9-4,3.4-6.5,4.4c-2.5,1-5.3,1.5-8.4,1.5h-16
	v-44.8h16c3.1,0,5.9,0.5,8.4,1.5c2.5,1,4.7,2.5,6.5,4.4c1.8,1.9,3.2,4.3,4.3,7C100.7,465.9,101.2,469.1,101.2,472.6z M100.3,472.6
	c0-3.5-0.5-6.6-1.5-9.3s-2.3-5-4.1-6.8c-1.7-1.9-3.8-3.3-6.3-4.2c-2.4-1-5.1-1.4-8.1-1.4H65.2v43.5h15.2c2.9,0,5.6-0.5,8.1-1.4
	c2.4-1,4.5-2.4,6.3-4.2s3.1-4.1,4.1-6.8C99.9,479.2,100.3,476.1,100.3,472.6z"/>
<path class="st1" d="M-13.8,474.6c0,12.6-9.3,20.9-20.7,20.9s-20.7-8.2-20.7-20.9c0-12.6,20.7-31.7,20.7-31.7S-13.8,462-13.8,474.6z
	"/>
<g>
	<path d="M47.6,517.4v2.7h-1.9v-8h2.8c0.6,0,1,0.1,1.5,0.2c0.4,0.1,0.7,0.3,1,0.6s0.5,0.5,0.6,0.8c0.1,0.3,0.2,0.7,0.2,1
		c0,0.4-0.1,0.8-0.2,1.1c-0.1,0.3-0.3,0.6-0.6,0.9c-0.3,0.2-0.6,0.4-1,0.6s-0.9,0.2-1.4,0.2H47.6z M47.6,516h1c0.5,0,0.8-0.1,1-0.3
		c0.2-0.2,0.3-0.6,0.3-1c0-0.2,0-0.4-0.1-0.5c-0.1-0.1-0.1-0.3-0.3-0.4c-0.1-0.1-0.3-0.2-0.4-0.2s-0.4-0.1-0.6-0.1h-1V516z"/>
	<path d="M65,516c0,0.6-0.1,1.1-0.3,1.6c-0.2,0.5-0.5,0.9-0.8,1.3c-0.4,0.4-0.8,0.7-1.3,0.9c-0.5,0.2-1.1,0.3-1.7,0.3
		c-0.6,0-1.2-0.1-1.7-0.3c-0.5-0.2-1-0.5-1.3-0.9s-0.6-0.8-0.8-1.3c-0.2-0.5-0.3-1-0.3-1.6c0-0.6,0.1-1.1,0.3-1.6
		c0.2-0.5,0.5-0.9,0.8-1.3c0.4-0.4,0.8-0.7,1.3-0.9c0.5-0.2,1.1-0.3,1.7-0.3c0.6,0,1.2,0.1,1.7,0.3c0.5,0.2,0.9,0.5,1.3,0.9
		c0.4,0.4,0.6,0.8,0.8,1.3C64.9,514.9,65,515.4,65,516z M63.1,516c0-0.4-0.1-0.8-0.2-1.1c-0.1-0.3-0.3-0.6-0.4-0.8
		c-0.2-0.2-0.4-0.4-0.7-0.5c-0.3-0.1-0.6-0.2-1-0.2c-0.4,0-0.7,0.1-1,0.2c-0.3,0.1-0.5,0.3-0.7,0.5c-0.2,0.2-0.3,0.5-0.4,0.8
		s-0.2,0.7-0.2,1.1c0,0.4,0.1,0.8,0.2,1.1c0.1,0.3,0.3,0.6,0.4,0.8c0.2,0.2,0.4,0.4,0.7,0.5c0.3,0.1,0.6,0.2,1,0.2
		c0.4,0,0.7-0.1,1-0.2c0.3-0.1,0.5-0.3,0.7-0.5c0.2-0.2,0.3-0.5,0.4-0.8C63.1,516.8,63.1,516.4,63.1,516z"/>
	<path d="M69.7,512h1.6c0.2,0,0.3,0,0.4,0.1c0.1,0.1,0.2,0.2,0.2,0.3l1.1,4.2c0,0.1,0.1,0.3,0.1,0.4c0,0.2,0.1,0.3,0.1,0.5
		c0-0.2,0.1-0.3,0.1-0.5s0.1-0.3,0.1-0.4l1.3-4.2c0-0.1,0.1-0.2,0.2-0.3c0.1-0.1,0.2-0.1,0.4-0.1h0.6c0.2,0,0.3,0,0.4,0.1
		c0.1,0.1,0.2,0.2,0.2,0.3l1.3,4.2c0,0.1,0.1,0.3,0.1,0.4c0,0.1,0.1,0.3,0.1,0.5c0-0.2,0.1-0.3,0.1-0.5c0-0.1,0.1-0.3,0.1-0.4
		l1.1-4.2c0-0.1,0.1-0.2,0.2-0.3c0.1-0.1,0.2-0.1,0.4-0.1h1.5l-2.5,8h-1.7l-1.5-5c0-0.1-0.1-0.2-0.1-0.3c0-0.1-0.1-0.2-0.1-0.3
		c0,0.1-0.1,0.2-0.1,0.3s-0.1,0.2-0.1,0.3l-1.5,5h-1.7L69.7,512z"/>
	<path d="M91.7,512v1.4h-3.3v1.9h2.5v1.4h-2.5v1.9h3.3v1.4h-5.2v-8H91.7z"/>
	<path d="M99,517.1v3h-1.9v-8h2.6c0.6,0,1.1,0.1,1.5,0.2c0.4,0.1,0.7,0.3,1,0.5c0.3,0.2,0.4,0.5,0.6,0.8c0.1,0.3,0.2,0.6,0.2,0.9
		c0,0.3,0,0.5-0.1,0.7c-0.1,0.2-0.2,0.4-0.3,0.6c-0.1,0.2-0.3,0.4-0.5,0.5c-0.2,0.2-0.4,0.3-0.7,0.4c0.1,0.1,0.2,0.1,0.3,0.2
		s0.2,0.2,0.3,0.3l1.7,2.8H102c-0.3,0-0.5-0.1-0.7-0.4l-1.3-2.3c-0.1-0.1-0.1-0.2-0.2-0.2c-0.1,0-0.2-0.1-0.3-0.1H99z M99,515.8h0.7
		c0.3,0,0.5,0,0.6-0.1c0.2-0.1,0.3-0.2,0.4-0.3c0.1-0.1,0.2-0.2,0.2-0.4c0.1-0.2,0.1-0.3,0.1-0.5c0-0.4-0.1-0.6-0.3-0.8
		c-0.2-0.2-0.6-0.3-1.1-0.3H99V515.8z"/>
	<path d="M114,512v1.4h-3.3v1.9h2.5v1.4h-2.5v1.9h3.3v1.4h-5.2v-8H114z"/>
	<path d="M126.7,516c0,0.6-0.1,1.1-0.3,1.6c-0.2,0.5-0.5,0.9-0.8,1.3s-0.8,0.6-1.3,0.8c-0.5,0.2-1.1,0.3-1.7,0.3h-3.1v-8h3.1
		c0.6,0,1.2,0.1,1.7,0.3c0.5,0.2,0.9,0.5,1.3,0.8s0.6,0.8,0.8,1.3C126.6,514.9,126.7,515.4,126.7,516z M124.8,516
		c0-0.4-0.1-0.8-0.2-1.1s-0.2-0.6-0.4-0.8c-0.2-0.2-0.4-0.4-0.7-0.5s-0.6-0.2-1-0.2h-1.2v5.2h1.2c0.4,0,0.7-0.1,1-0.2
		s0.5-0.3,0.7-0.5c0.2-0.2,0.3-0.5,0.4-0.8S124.8,516.4,124.8,516z"/>
	<path d="M138.5,520v-8h2.9c0.6,0,1,0.1,1.4,0.2s0.7,0.2,1,0.4c0.2,0.2,0.4,0.4,0.5,0.7c0.1,0.3,0.2,0.6,0.2,0.9
		c0,0.2,0,0.4-0.1,0.5c-0.1,0.2-0.1,0.3-0.2,0.5c-0.1,0.1-0.3,0.3-0.4,0.4c-0.2,0.1-0.4,0.2-0.6,0.3c0.5,0.1,0.9,0.3,1.2,0.6
		s0.4,0.7,0.4,1.1c0,0.3-0.1,0.7-0.2,1s-0.3,0.5-0.6,0.8c-0.3,0.2-0.6,0.4-0.9,0.5c-0.4,0.1-0.8,0.2-1.3,0.2H138.5z M140.4,515.4h1
		c0.2,0,0.4,0,0.6,0c0.2,0,0.3-0.1,0.4-0.2c0.1-0.1,0.2-0.2,0.3-0.3c0.1-0.1,0.1-0.3,0.1-0.5c0-0.2,0-0.3-0.1-0.5
		c0-0.1-0.1-0.2-0.2-0.3c-0.1-0.1-0.2-0.1-0.4-0.2s-0.3,0-0.5,0h-1.1V515.4z M140.4,516.6v2h1.3c0.2,0,0.4,0,0.6-0.1
		c0.2-0.1,0.3-0.1,0.4-0.2c0.1-0.1,0.1-0.2,0.2-0.3c0-0.1,0-0.3,0-0.4c0-0.1,0-0.3-0.1-0.4c0-0.1-0.1-0.2-0.2-0.3
		c-0.1-0.1-0.2-0.1-0.4-0.2c-0.2,0-0.3-0.1-0.6-0.1H140.4z"/>
	<path d="M154.1,517v3h-1.9v-3l-2.9-5h1.6c0.2,0,0.3,0,0.4,0.1s0.2,0.2,0.2,0.3l1.1,2.3c0.1,0.2,0.2,0.4,0.3,0.5
		c0.1,0.2,0.1,0.3,0.2,0.5c0.1-0.2,0.1-0.3,0.2-0.5c0.1-0.2,0.2-0.3,0.2-0.5l1.1-2.3c0,0,0.1-0.1,0.1-0.1c0,0,0.1-0.1,0.1-0.1
		c0,0,0.1-0.1,0.2-0.1c0.1,0,0.1,0,0.2,0h1.6L154.1,517z"/>
	<path d="M168.5,520v-8h2.9c0.6,0,1,0.1,1.4,0.2s0.7,0.2,1,0.4c0.2,0.2,0.4,0.4,0.5,0.7c0.1,0.3,0.2,0.6,0.2,0.9
		c0,0.2,0,0.4-0.1,0.5c-0.1,0.2-0.1,0.3-0.2,0.5c-0.1,0.1-0.3,0.3-0.4,0.4c-0.2,0.1-0.4,0.2-0.6,0.3c0.5,0.1,0.9,0.3,1.2,0.6
		s0.4,0.7,0.4,1.1c0,0.3-0.1,0.7-0.2,1s-0.3,0.5-0.6,0.8c-0.3,0.2-0.6,0.4-0.9,0.5c-0.4,0.1-0.8,0.2-1.3,0.2H168.5z M170.4,515.4h1
		c0.2,0,0.4,0,0.6,0c0.2,0,0.3-0.1,0.4-0.2c0.1-0.1,0.2-0.2,0.3-0.3c0.1-0.1,0.1-0.3,0.1-0.5c0-0.2,0-0.3-0.1-0.5
		c0-0.1-0.1-0.2-0.2-0.3c-0.1-0.1-0.2-0.1-0.4-0.2s-0.3,0-0.5,0h-1.1V515.4z M170.4,516.6v2h1.3c0.2,0,0.4,0,0.6-0.1
		c0.2-0.1,0.3-0.1,0.4-0.2c0.1-0.1,0.1-0.2,0.2-0.3c0-0.1,0-0.3,0-0.4c0-0.1,0-0.3-0.1-0.4c0-0.1-0.1-0.2-0.2-0.3
		c-0.1-0.1-0.2-0.1-0.4-0.2c-0.2,0-0.3-0.1-0.6-0.1H170.4z"/>
	<path d="M187.6,520h-1.4c-0.2,0-0.3,0-0.4-0.1c-0.1-0.1-0.2-0.2-0.2-0.3l-0.5-1.4h-3l-0.5,1.4c0,0.1-0.1,0.2-0.2,0.3
		c-0.1,0.1-0.2,0.1-0.4,0.1h-1.5l3.1-8h1.9L187.6,520z M182.4,517h2.2l-0.7-2.2c0-0.1-0.1-0.3-0.2-0.5c-0.1-0.2-0.1-0.4-0.2-0.6
		c-0.1,0.2-0.1,0.4-0.2,0.6s-0.1,0.4-0.2,0.5L182.4,517z"/>
	<path d="M193.8,512c0.1,0,0.1,0,0.1,0c0,0,0.1,0,0.1,0.1c0,0,0.1,0.1,0.1,0.1l3.8,4.8c0-0.2,0-0.3,0-0.4c0-0.1,0-0.3,0-0.4V512h1.6
		v8h-1c-0.1,0-0.3,0-0.4-0.1c-0.1,0-0.2-0.1-0.3-0.2l-3.8-4.8c0,0.1,0,0.3,0,0.4c0,0.1,0,0.3,0,0.4v4.3h-1.6v-8h1
		C193.7,512,193.8,512,193.8,512z"/>
	<path d="M210.7,518c0,0,0.1,0,0.1,0s0.1,0,0.1,0.1l0.7,0.8c-0.3,0.4-0.7,0.7-1.2,1c-0.5,0.2-1.1,0.3-1.7,0.3
		c-0.6,0-1.2-0.1-1.6-0.3s-0.9-0.5-1.2-0.9c-0.3-0.4-0.6-0.8-0.8-1.3c-0.2-0.5-0.3-1-0.3-1.6c0-0.6,0.1-1.1,0.3-1.6
		c0.2-0.5,0.5-0.9,0.9-1.3c0.4-0.4,0.8-0.6,1.3-0.8c0.5-0.2,1.1-0.3,1.7-0.3c0.3,0,0.6,0,0.8,0.1c0.3,0.1,0.5,0.1,0.7,0.2
		c0.2,0.1,0.4,0.2,0.6,0.3c0.2,0.1,0.4,0.3,0.5,0.4l-0.6,0.8c0,0.1-0.1,0.1-0.1,0.1s-0.1,0.1-0.2,0.1c-0.1,0-0.1,0-0.2,0
		c-0.1,0-0.1-0.1-0.2-0.1c-0.1,0-0.1-0.1-0.2-0.1s-0.2-0.1-0.3-0.1c-0.1,0-0.2-0.1-0.4-0.1c-0.1,0-0.3,0-0.5,0
		c-0.3,0-0.6,0.1-0.9,0.2s-0.5,0.3-0.7,0.5s-0.4,0.5-0.5,0.8c-0.1,0.3-0.2,0.7-0.2,1.1c0,0.4,0.1,0.8,0.2,1.1
		c0.1,0.3,0.3,0.6,0.5,0.8c0.2,0.2,0.4,0.4,0.7,0.5c0.3,0.1,0.5,0.2,0.8,0.2c0.2,0,0.3,0,0.5,0c0.1,0,0.3,0,0.4-0.1
		c0.1,0,0.2-0.1,0.3-0.2c0.1-0.1,0.2-0.1,0.3-0.2c0,0,0.1-0.1,0.1-0.1C210.6,518,210.7,518,210.7,518z"/>
	<path d="M224.9,516c0,0.6-0.1,1.1-0.3,1.6c-0.2,0.5-0.5,0.9-0.8,1.3s-0.8,0.7-1.3,0.9s-1.1,0.3-1.7,0.3s-1.2-0.1-1.7-0.3
		s-1-0.5-1.3-0.9s-0.6-0.8-0.8-1.3c-0.2-0.5-0.3-1-0.3-1.6c0-0.6,0.1-1.1,0.3-1.6c0.2-0.5,0.5-0.9,0.8-1.3c0.4-0.4,0.8-0.7,1.3-0.9
		s1.1-0.3,1.7-0.3s1.2,0.1,1.7,0.3s0.9,0.5,1.3,0.9s0.6,0.8,0.8,1.3C224.8,514.9,224.9,515.4,224.9,516z M223,516
		c0-0.4-0.1-0.8-0.2-1.1s-0.2-0.6-0.4-0.8c-0.2-0.2-0.4-0.4-0.7-0.5c-0.3-0.1-0.6-0.2-1-0.2c-0.4,0-0.7,0.1-1,0.2
		c-0.3,0.1-0.5,0.3-0.7,0.5c-0.2,0.2-0.3,0.5-0.4,0.8s-0.2,0.7-0.2,1.1c0,0.4,0.1,0.8,0.2,1.1c0.1,0.3,0.2,0.6,0.4,0.8
		c0.2,0.2,0.4,0.4,0.7,0.5c0.3,0.1,0.6,0.2,1,0.2c0.4,0,0.7-0.1,1-0.2c0.3-0.1,0.5-0.3,0.7-0.5c0.2-0.2,0.3-0.5,0.4-0.8
		C222.9,516.8,223,516.4,223,516z"/>
	<path d="M232,517.1v3h-1.9v-8h2.6c0.6,0,1.1,0.1,1.5,0.2c0.4,0.1,0.7,0.3,1,0.5c0.3,0.2,0.4,0.5,0.6,0.8c0.1,0.3,0.2,0.6,0.2,0.9
		c0,0.3,0,0.5-0.1,0.7c-0.1,0.2-0.2,0.4-0.3,0.6c-0.1,0.2-0.3,0.4-0.5,0.5c-0.2,0.2-0.4,0.3-0.7,0.4c0.1,0.1,0.2,0.1,0.3,0.2
		s0.2,0.2,0.3,0.3l1.7,2.8h-1.7c-0.3,0-0.5-0.1-0.7-0.4l-1.3-2.3c-0.1-0.1-0.1-0.2-0.2-0.2c-0.1,0-0.2-0.1-0.3-0.1H232z M232,515.8
		h0.7c0.3,0,0.5,0,0.6-0.1c0.2-0.1,0.3-0.2,0.4-0.3c0.1-0.1,0.2-0.2,0.2-0.4c0.1-0.2,0.1-0.3,0.1-0.5c0-0.4-0.1-0.6-0.3-0.8
		c-0.2-0.2-0.6-0.3-1.1-0.3H232V515.8z"/>
</g>
<path d="M195.5,308.8v2.7h-23.8v18.3h19.8v2.7h-19.8v18.9h23.8v2.7h-27.1v-45.3H195.5z"/>
<path d="M246.6,331.5c0,3.5-0.5,6.7-1.6,9.5c-1,2.8-2.5,5.3-4.4,7.3c-1.9,2-4.2,3.6-6.8,4.7c-2.6,1.1-5.6,1.6-8.8,1.6
	c-3.2,0-6.1-0.5-8.7-1.6c-2.6-1.1-4.9-2.7-6.8-4.7c-1.9-2-3.4-4.4-4.4-7.3c-1.1-2.8-1.6-6-1.6-9.5c0-3.5,0.5-6.6,1.6-9.5
	c1.1-2.8,2.5-5.3,4.4-7.3c1.9-2,4.2-3.6,6.8-4.7c2.6-1.1,5.6-1.7,8.7-1.7c3.2,0,6.2,0.5,8.8,1.6c2.6,1.1,4.9,2.7,6.8,4.7
	c1.9,2,3.4,4.5,4.4,7.3C246,324.8,246.6,328,246.6,331.5z M243.2,331.5c0-3.2-0.4-6-1.3-8.5c-0.9-2.5-2.1-4.7-3.7-6.4
	c-1.6-1.7-3.5-3.1-5.7-4s-4.7-1.4-7.5-1.4c-2.7,0-5.1,0.5-7.4,1.4s-4.1,2.3-5.8,4c-1.6,1.7-2.9,3.9-3.7,6.4
	c-0.9,2.5-1.3,5.4-1.3,8.5c0,3.2,0.4,6,1.3,8.5c0.9,2.5,2.1,4.6,3.7,6.4c1.6,1.7,3.5,3.1,5.8,4c2.2,0.9,4.7,1.4,7.4,1.4
	c2.7,0,5.2-0.5,7.5-1.4c2.2-0.9,4.2-2.3,5.7-4c1.6-1.7,2.8-3.9,3.7-6.4C242.7,337.5,243.2,334.7,243.2,331.5z"/>
<path d="M279.1,314.4c-0.2,0.4-0.5,0.5-0.8,0.5c-0.3,0-0.6-0.2-1.1-0.6c-0.4-0.4-1-0.8-1.8-1.3c-0.7-0.5-1.7-0.9-2.8-1.3
	c-1.1-0.4-2.5-0.6-4.2-0.6c-1.6,0-3.1,0.2-4.3,0.7c-1.3,0.5-2.3,1.1-3.1,1.9c-0.8,0.8-1.5,1.7-1.9,2.8c-0.4,1.1-0.7,2.2-0.7,3.4
	c0,1.5,0.3,2.8,1,3.8c0.7,1,1.5,1.9,2.6,2.6c1.1,0.7,2.3,1.3,3.6,1.8s2.8,1,4.2,1.4c1.4,0.5,2.8,1,4.2,1.6c1.4,0.6,2.6,1.3,3.6,2.1
	c1.1,0.9,1.9,1.9,2.6,3.2c0.7,1.2,1,2.8,1,4.7c0,1.9-0.3,3.7-1,5.4c-0.7,1.7-1.6,3.1-2.8,4.4s-2.8,2.2-4.5,2.9s-3.8,1.1-6.1,1.1
	c-3,0-5.6-0.5-7.7-1.6c-2.2-1.1-4-2.5-5.7-4.3l0.9-1.4c0.3-0.3,0.6-0.5,0.9-0.5c0.2,0,0.4,0.1,0.7,0.4c0.3,0.3,0.7,0.6,1.1,0.9
	c0.4,0.4,0.9,0.8,1.5,1.2c0.6,0.4,1.3,0.8,2.1,1.2c0.8,0.4,1.7,0.7,2.7,0.9c1,0.3,2.2,0.4,3.5,0.4c1.8,0,3.4-0.3,4.8-0.8
	s2.6-1.3,3.6-2.2c1-0.9,1.7-2.1,2.2-3.3c0.5-1.3,0.8-2.7,0.8-4.1c0-1.6-0.3-2.9-1-4c-0.7-1-1.5-1.9-2.6-2.6s-2.3-1.3-3.6-1.7
	s-2.8-0.9-4.2-1.4c-1.4-0.4-2.8-0.9-4.2-1.5s-2.6-1.3-3.6-2.1c-1.1-0.9-1.9-1.9-2.6-3.2c-0.7-1.3-1-2.9-1-4.8c0-1.5,0.3-3,0.9-4.4
	c0.6-1.4,1.4-2.7,2.5-3.7c1.1-1.1,2.5-1.9,4.1-2.6c1.6-0.7,3.5-1,5.6-1c2.3,0,4.5,0.4,6.3,1.1c1.9,0.7,3.6,1.9,5.1,3.4L279.1,314.4z
	"/>
<path class="st0" d="M-59.3,354.5h22.8v0.7h-23.6v-44.8h0.8V354.5z"/>
<path class="st0" d="M-25.5,355.2h-0.8v-44.8h0.8V355.2z"/>
<path class="st0" d="M19.4,353.1l11.9,12.5h-0.7c-0.2,0-0.3,0-0.4-0.1c-0.1-0.1-0.2-0.1-0.6-0.6l-11.2-11.9"/>
<path class="st0" d="M58,355.1c2.4,0,4.6-0.4,6.5-1.3c1.9-0.9,3.5-2,4.8-3.5c1.3-1.5,2.3-3.2,3-5.2c0.7-2,1.1-4.1,1.1-6.4v-28.2h0.8
	v28.2c0,2.4-0.4,4.6-1.1,6.7c-0.7,2.1-1.8,3.9-3.2,5.5c-1.4,1.6-3.1,2.8-5.1,3.7c-2,0.9-4.2,1.4-6.7,1.4c-2.5,0-4.7-0.5-6.7-1.4
	c-2-0.9-3.7-2.1-5.1-3.7c-1.4-1.6-2.5-3.4-3.2-5.5c-0.7-2.1-1.1-4.3-1.1-6.7v-28.2h0.8v28.1c0,2.3,0.4,4.4,1.1,6.4
	c0.7,2,1.7,3.8,3,5.3c1.3,1.5,2.9,2.7,4.8,3.6C53.5,354.7,55.6,355.1,58,355.1z"/>
<path class="st0" d="M91.3,355.2h-0.8v-44.8h0.8V355.2z"/>
<path class="st0" d="M144.7,332.8c0,3.5-0.5,6.7-1.5,9.5c-1,2.8-2.4,5.1-4.3,7c-1.8,1.9-4,3.4-6.5,4.4c-2.5,1-5.3,1.5-8.4,1.5h-16
	v-44.8h16c3.1,0,5.9,0.5,8.4,1.5c2.5,1,4.7,2.5,6.5,4.4c1.8,1.9,3.2,4.3,4.3,7C144.2,326.1,144.7,329.3,144.7,332.8z M143.8,332.8
	c0-3.5-0.5-6.6-1.5-9.3s-2.3-5-4.1-6.8c-1.7-1.9-3.8-3.3-6.3-4.2c-2.4-1-5.1-1.4-8.1-1.4h-15.2v43.5h15.2c2.9,0,5.6-0.5,8.1-1.4
	c2.4-1,4.5-2.4,6.3-4.2s3.1-4.1,4.1-6.8C143.4,339.4,143.8,336.3,143.8,332.8z"/>
<path class="st1" d="M29.7,334.8c0,12.6-9.3,20.9-20.7,20.9s-20.7-8.2-20.7-20.9S9,303,9,303S29.7,322.1,29.7,334.8z"/>
<path d="M185.9,17.8v1.8h-16.2V32h13.5v1.8h-13.5v12.8h16.2v1.8h-18.4V17.8H185.9z"/>
<path d="M220.6,33.1c0,2.4-0.4,4.5-1.1,6.5c-0.7,1.9-1.7,3.6-3,5c-1.3,1.4-2.8,2.4-4.6,3.2c-1.8,0.7-3.8,1.1-6,1.1
	c-2.2,0-4.1-0.4-5.9-1.1c-1.8-0.7-3.3-1.8-4.6-3.2c-1.3-1.4-2.3-3-3-5c-0.7-1.9-1.1-4.1-1.1-6.5c0-2.4,0.4-4.5,1.1-6.4
	c0.7-1.9,1.7-3.6,3-5c1.3-1.4,2.8-2.4,4.6-3.2c1.8-0.8,3.8-1.1,5.9-1.1c2.2,0,4.2,0.4,6,1.1c1.8,0.7,3.3,1.8,4.6,3.2
	c1.3,1.4,2.3,3,3,5C220.2,28.6,220.6,30.8,220.6,33.1z M218.3,33.1c0-2.1-0.3-4.1-0.9-5.8c-0.6-1.7-1.4-3.2-2.5-4.3
	c-1.1-1.2-2.4-2.1-3.9-2.7c-1.5-0.6-3.2-0.9-5.1-0.9c-1.8,0-3.5,0.3-5,0.9c-1.5,0.6-2.8,1.5-3.9,2.7c-1.1,1.2-1.9,2.6-2.5,4.3
	c-0.6,1.7-0.9,3.6-0.9,5.8c0,2.2,0.3,4.1,0.9,5.8c0.6,1.7,1.4,3.1,2.5,4.3c1.1,1.2,2.4,2.1,3.9,2.7c1.5,0.6,3.2,0.9,5,0.9
	c1.9,0,3.5-0.3,5.1-0.9c1.5-0.6,2.8-1.5,3.9-2.7c1.1-1.2,1.9-2.6,2.5-4.3C218,37.2,218.3,35.3,218.3,33.1z"/>
<path d="M242.7,21.5c-0.1,0.2-0.3,0.4-0.6,0.4c-0.2,0-0.4-0.1-0.7-0.4c-0.3-0.3-0.7-0.6-1.2-0.9c-0.5-0.3-1.1-0.6-1.9-0.9
	c-0.8-0.3-1.7-0.4-2.8-0.4c-1.1,0-2.1,0.2-3,0.5c-0.9,0.3-1.6,0.8-2.1,1.3c-0.6,0.6-1,1.2-1.3,1.9c-0.3,0.7-0.4,1.5-0.4,2.3
	c0,1,0.2,1.9,0.7,2.6c0.4,0.7,1,1.3,1.8,1.7c0.7,0.5,1.5,0.9,2.5,1.2c0.9,0.3,1.9,0.6,2.8,1c1,0.3,1.9,0.7,2.8,1.1
	c0.9,0.4,1.7,0.9,2.5,1.4c0.7,0.6,1.3,1.3,1.8,2.1c0.4,0.8,0.7,1.9,0.7,3.2c0,1.3-0.2,2.5-0.7,3.6c-0.4,1.1-1.1,2.1-1.9,3
	c-0.8,0.8-1.9,1.5-3.1,2c-1.2,0.5-2.6,0.7-4.2,0.7c-2,0-3.8-0.4-5.2-1.1c-1.5-0.7-2.7-1.7-3.8-2.9l0.6-1c0.2-0.2,0.4-0.3,0.6-0.3
	c0.1,0,0.3,0.1,0.5,0.3c0.2,0.2,0.4,0.4,0.7,0.6c0.3,0.3,0.6,0.5,1,0.8c0.4,0.3,0.9,0.6,1.4,0.8c0.5,0.3,1.2,0.5,1.8,0.6
	c0.7,0.2,1.5,0.3,2.4,0.3c1.2,0,2.3-0.2,3.3-0.6c1-0.4,1.8-0.9,2.4-1.5c0.7-0.6,1.2-1.4,1.5-2.3c0.3-0.9,0.5-1.8,0.5-2.8
	c0-1.1-0.2-2-0.7-2.7c-0.4-0.7-1-1.3-1.8-1.8c-0.7-0.5-1.5-0.9-2.5-1.2c-0.9-0.3-1.9-0.6-2.8-0.9c-1-0.3-1.9-0.6-2.8-1
	c-0.9-0.4-1.7-0.9-2.5-1.4c-0.7-0.6-1.3-1.3-1.8-2.2c-0.4-0.9-0.7-2-0.7-3.3c0-1,0.2-2,0.6-3c0.4-1,1-1.8,1.7-2.5
	c0.8-0.7,1.7-1.3,2.8-1.8c1.1-0.4,2.4-0.7,3.8-0.7c1.6,0,3,0.3,4.3,0.8c1.3,0.5,2.4,1.3,3.5,2.3L242.7,21.5z"/>
<path class="st0" d="M12.8,48.8h15.5v0.5h-16V18.8h0.5V48.8z"/>
<path class="st0" d="M35.8,49.2h-0.5V18.8h0.5V49.2z"/>
<path class="st0" d="M66.3,47.8l8.1,8.5h-0.5c-0.1,0-0.2,0-0.3-0.1c-0.1,0-0.1-0.1-0.4-0.4l-7.6-8.1"/>
<path class="st0" d="M92.5,49.2c1.6,0,3.1-0.3,4.4-0.9c1.3-0.6,2.4-1.4,3.3-2.4c0.9-1,1.6-2.2,2.1-3.6c0.5-1.4,0.7-2.8,0.7-4.4V18.8
	h0.5v19.1c0,1.6-0.3,3.1-0.8,4.5c-0.5,1.4-1.2,2.7-2.2,3.7c-1,1.1-2.1,1.9-3.5,2.5c-1.4,0.6-2.9,0.9-4.6,0.9c-1.7,0-3.2-0.3-4.6-0.9
	c-1.4-0.6-2.5-1.5-3.5-2.5c-1-1.1-1.7-2.3-2.2-3.7c-0.5-1.4-0.8-2.9-0.8-4.5V18.8h0.5v19.1c0,1.6,0.2,3,0.7,4.4
	c0.5,1.4,1.2,2.6,2.1,3.6c0.9,1,2,1.8,3.3,2.4C89.4,48.9,90.9,49.2,92.5,49.2z"/>
<path class="st0" d="M115.1,49.2h-0.5V18.8h0.5V49.2z"/>
<path class="st0" d="M151.4,34c0,2.4-0.3,4.5-1,6.4c-0.7,1.9-1.7,3.5-2.9,4.8c-1.2,1.3-2.7,2.3-4.4,3c-1.7,0.7-3.6,1-5.7,1h-10.9
	V18.8h10.9c2.1,0,4,0.3,5.7,1c1.7,0.7,3.2,1.7,4.4,3c1.2,1.3,2.2,2.9,2.9,4.8C151,29.5,151.4,31.6,151.4,34z M150.8,34
	c0-2.4-0.3-4.5-1-6.3s-1.6-3.4-2.8-4.6c-1.2-1.3-2.6-2.2-4.3-2.9c-1.7-0.7-3.5-1-5.5-1H127v29.6h10.3c2,0,3.8-0.3,5.5-1
	c1.7-0.7,3.1-1.6,4.3-2.9c1.2-1.3,2.1-2.8,2.8-4.6C150.5,38.5,150.8,36.4,150.8,34z"/>
<path class="st1" d="M73.3,35.4c0,8.6-6.3,14.2-14.1,14.2S45.2,44,45.2,35.4s14.1-21.6,14.1-21.6S73.3,26.8,73.3,35.4z"/>
<g>
	<path d="M115,64.4v1.8h-1.3v-5.4h1.9c0.4,0,0.7,0,1,0.1c0.3,0.1,0.5,0.2,0.7,0.4c0.2,0.2,0.3,0.3,0.4,0.6c0.1,0.2,0.1,0.5,0.1,0.7
		c0,0.3,0,0.5-0.1,0.7c-0.1,0.2-0.2,0.4-0.4,0.6c-0.2,0.2-0.4,0.3-0.7,0.4c-0.3,0.1-0.6,0.1-1,0.1H115z M115,63.4h0.7
		c0.3,0,0.6-0.1,0.7-0.2c0.1-0.2,0.2-0.4,0.2-0.7c0-0.1,0-0.2-0.1-0.3c0-0.1-0.1-0.2-0.2-0.3c-0.1-0.1-0.2-0.1-0.3-0.2
		c-0.1,0-0.3-0.1-0.4-0.1H115V63.4z"/>
	<path d="M126.8,63.5c0,0.4-0.1,0.8-0.2,1.1c-0.1,0.3-0.3,0.6-0.6,0.9c-0.2,0.3-0.5,0.4-0.9,0.6c-0.3,0.1-0.7,0.2-1.2,0.2
		c-0.4,0-0.8-0.1-1.2-0.2c-0.3-0.1-0.6-0.3-0.9-0.6c-0.2-0.3-0.4-0.5-0.6-0.9c-0.1-0.3-0.2-0.7-0.2-1.1c0-0.4,0.1-0.8,0.2-1.1
		c0.1-0.3,0.3-0.6,0.6-0.9c0.2-0.2,0.5-0.4,0.9-0.6c0.3-0.1,0.7-0.2,1.2-0.2c0.4,0,0.8,0.1,1.2,0.2c0.3,0.1,0.6,0.3,0.9,0.6
		c0.2,0.2,0.4,0.5,0.6,0.9C126.8,62.7,126.8,63.1,126.8,63.5z M125.5,63.5c0-0.3,0-0.5-0.1-0.7c-0.1-0.2-0.2-0.4-0.3-0.5
		c-0.1-0.1-0.3-0.3-0.5-0.3c-0.2-0.1-0.4-0.1-0.6-0.1c-0.2,0-0.5,0-0.7,0.1c-0.2,0.1-0.4,0.2-0.5,0.3c-0.1,0.1-0.2,0.3-0.3,0.5
		c-0.1,0.2-0.1,0.5-0.1,0.7c0,0.3,0,0.5,0.1,0.7c0.1,0.2,0.2,0.4,0.3,0.5c0.1,0.1,0.3,0.3,0.5,0.3c0.2,0.1,0.4,0.1,0.7,0.1
		c0.2,0,0.5,0,0.6-0.1c0.2-0.1,0.3-0.2,0.5-0.3c0.1-0.1,0.2-0.3,0.3-0.5C125.5,64,125.5,63.8,125.5,63.5z"/>
	<path d="M130,60.8h1.1c0.1,0,0.2,0,0.3,0.1c0.1,0,0.1,0.1,0.1,0.2l0.7,2.8c0,0.1,0,0.2,0.1,0.3c0,0.1,0,0.2,0.1,0.3
		c0-0.1,0.1-0.2,0.1-0.3s0.1-0.2,0.1-0.3l0.9-2.8c0-0.1,0.1-0.1,0.1-0.2c0.1-0.1,0.2-0.1,0.3-0.1h0.4c0.1,0,0.2,0,0.3,0.1
		c0.1,0,0.1,0.1,0.1,0.2l0.9,2.8c0,0.1,0.1,0.2,0.1,0.3c0,0.1,0.1,0.2,0.1,0.3c0-0.1,0-0.2,0.1-0.3c0-0.1,0-0.2,0.1-0.3l0.7-2.8
		c0-0.1,0.1-0.1,0.1-0.2c0.1-0.1,0.2-0.1,0.3-0.1h1l-1.7,5.4h-1.1l-1-3.4c0-0.1,0-0.1-0.1-0.2c0-0.1,0-0.1-0.1-0.2
		c0,0.1,0,0.1-0.1,0.2c0,0.1,0,0.1-0.1,0.2l-1,3.4h-1.1L130,60.8z"/>
	<path d="M144.9,60.8v1h-2.2V63h1.7V64h-1.7v1.3h2.2v1h-3.5v-5.4H144.9z"/>
	<path d="M149.9,64.2v2h-1.3v-5.4h1.8c0.4,0,0.7,0,1,0.1c0.3,0.1,0.5,0.2,0.7,0.3c0.2,0.1,0.3,0.3,0.4,0.5c0.1,0.2,0.1,0.4,0.1,0.6
		c0,0.2,0,0.3-0.1,0.5c0,0.2-0.1,0.3-0.2,0.4c-0.1,0.1-0.2,0.3-0.3,0.4c-0.1,0.1-0.3,0.2-0.5,0.3c0.1,0,0.2,0.1,0.2,0.2
		c0.1,0.1,0.1,0.1,0.2,0.2l1.2,1.9h-1.1c-0.2,0-0.4-0.1-0.5-0.2l-0.9-1.6c0-0.1-0.1-0.1-0.1-0.1c-0.1,0-0.1,0-0.2,0H149.9z
		 M149.9,63.3h0.5c0.2,0,0.3,0,0.4-0.1c0.1,0,0.2-0.1,0.3-0.2c0.1-0.1,0.1-0.2,0.2-0.3c0-0.1,0.1-0.2,0.1-0.3c0-0.2-0.1-0.4-0.2-0.6
		c-0.2-0.1-0.4-0.2-0.7-0.2h-0.5V63.3z"/>
	<path d="M160.1,60.8v1h-2.2V63h1.7V64h-1.7v1.3h2.2v1h-3.5v-5.4H160.1z"/>
	<path d="M168.7,63.5c0,0.4-0.1,0.8-0.2,1.1c-0.1,0.3-0.3,0.6-0.6,0.9s-0.5,0.4-0.9,0.6c-0.3,0.1-0.7,0.2-1.2,0.2h-2.1v-5.4h2.1
		c0.4,0,0.8,0.1,1.2,0.2c0.3,0.1,0.6,0.3,0.9,0.6c0.2,0.2,0.4,0.5,0.6,0.9C168.6,62.7,168.7,63.1,168.7,63.5z M167.4,63.5
		c0-0.3,0-0.5-0.1-0.7c-0.1-0.2-0.2-0.4-0.3-0.6c-0.1-0.2-0.3-0.3-0.5-0.3c-0.2-0.1-0.4-0.1-0.6-0.1H165v3.5h0.8
		c0.2,0,0.5,0,0.6-0.1c0.2-0.1,0.3-0.2,0.5-0.3c0.1-0.2,0.2-0.3,0.3-0.6C167.4,64,167.4,63.8,167.4,63.5z"/>
	<path d="M176.7,66.2v-5.4h2c0.4,0,0.7,0,1,0.1s0.5,0.2,0.6,0.3c0.2,0.1,0.3,0.3,0.4,0.5c0.1,0.2,0.1,0.4,0.1,0.6
		c0,0.1,0,0.2-0.1,0.4c0,0.1-0.1,0.2-0.2,0.3c-0.1,0.1-0.2,0.2-0.3,0.3c-0.1,0.1-0.3,0.2-0.4,0.2c0.4,0.1,0.6,0.2,0.8,0.4
		c0.2,0.2,0.3,0.4,0.3,0.8c0,0.2,0,0.4-0.1,0.6c-0.1,0.2-0.2,0.4-0.4,0.5c-0.2,0.1-0.4,0.3-0.6,0.3c-0.3,0.1-0.5,0.1-0.9,0.1H176.7z
		 M178,63.1h0.7c0.1,0,0.3,0,0.4,0c0.1,0,0.2-0.1,0.3-0.1c0.1,0,0.1-0.1,0.2-0.2c0-0.1,0.1-0.2,0.1-0.3c0-0.1,0-0.2,0-0.3
		c0-0.1-0.1-0.2-0.1-0.2c-0.1-0.1-0.2-0.1-0.3-0.1c-0.1,0-0.2,0-0.4,0H178V63.1z M178,63.9v1.4h0.9c0.2,0,0.3,0,0.4-0.1
		c0.1,0,0.2-0.1,0.2-0.2c0.1-0.1,0.1-0.1,0.1-0.2c0-0.1,0-0.2,0-0.3c0-0.1,0-0.2,0-0.3c0-0.1-0.1-0.1-0.1-0.2
		c-0.1-0.1-0.1-0.1-0.3-0.1c-0.1,0-0.2,0-0.4,0H178z"/>
	<path d="M187.3,64.2v2.1h-1.3v-2.1l-2-3.4h1.1c0.1,0,0.2,0,0.3,0.1c0.1,0.1,0.1,0.1,0.2,0.2l0.8,1.6c0.1,0.1,0.1,0.2,0.2,0.4
		c0.1,0.1,0.1,0.2,0.1,0.3c0-0.1,0.1-0.2,0.1-0.3c0.1-0.1,0.1-0.2,0.2-0.3l0.8-1.6c0,0,0-0.1,0.1-0.1c0,0,0.1-0.1,0.1-0.1
		c0,0,0.1,0,0.1-0.1c0,0,0.1,0,0.1,0h1.1L187.3,64.2z"/>
	<path d="M197.1,66.2v-5.4h2c0.4,0,0.7,0,1,0.1s0.5,0.2,0.6,0.3c0.2,0.1,0.3,0.3,0.4,0.5c0.1,0.2,0.1,0.4,0.1,0.6
		c0,0.1,0,0.2-0.1,0.4c0,0.1-0.1,0.2-0.2,0.3c-0.1,0.1-0.2,0.2-0.3,0.3c-0.1,0.1-0.3,0.2-0.4,0.2c0.4,0.1,0.6,0.2,0.8,0.4
		c0.2,0.2,0.3,0.4,0.3,0.8c0,0.2,0,0.4-0.1,0.6c-0.1,0.2-0.2,0.4-0.4,0.5c-0.2,0.1-0.4,0.3-0.6,0.3c-0.3,0.1-0.5,0.1-0.9,0.1H197.1z
		 M198.4,63.1h0.7c0.1,0,0.3,0,0.4,0c0.1,0,0.2-0.1,0.3-0.1c0.1,0,0.1-0.1,0.2-0.2c0-0.1,0.1-0.2,0.1-0.3c0-0.1,0-0.2,0-0.3
		c0-0.1-0.1-0.2-0.1-0.2c-0.1-0.1-0.2-0.1-0.3-0.1c-0.1,0-0.2,0-0.4,0h-0.7V63.1z M198.4,63.9v1.4h0.9c0.2,0,0.3,0,0.4-0.1
		c0.1,0,0.2-0.1,0.2-0.2c0.1-0.1,0.1-0.1,0.1-0.2c0-0.1,0-0.2,0-0.3c0-0.1,0-0.2,0-0.3c0-0.1-0.1-0.1-0.1-0.2
		c-0.1-0.1-0.1-0.1-0.3-0.1c-0.1,0-0.2,0-0.4,0H198.4z"/>
	<path d="M210.1,66.2h-1c-0.1,0-0.2,0-0.3-0.1c-0.1-0.1-0.1-0.1-0.1-0.2l-0.3-0.9h-2.1l-0.3,0.9c0,0.1-0.1,0.1-0.1,0.2
		c-0.1,0.1-0.2,0.1-0.3,0.1h-1l2.1-5.4h1.3L210.1,66.2z M206.6,64.1h1.5l-0.5-1.5c0-0.1-0.1-0.2-0.1-0.3c0-0.1-0.1-0.3-0.1-0.4
		c0,0.2-0.1,0.3-0.1,0.4s-0.1,0.2-0.1,0.3L206.6,64.1z"/>
	<path d="M214.3,60.8c0,0,0.1,0,0.1,0c0,0,0.1,0,0.1,0.1c0,0,0.1,0.1,0.1,0.1l2.6,3.3c0-0.1,0-0.2,0-0.3c0-0.1,0-0.2,0-0.3v-2.9h1.1
		v5.4h-0.7c-0.1,0-0.2,0-0.2,0c-0.1,0-0.1-0.1-0.2-0.2l-2.6-3.2c0,0.1,0,0.2,0,0.3c0,0.1,0,0.2,0,0.3v2.9h-1.1v-5.4h0.7
		C214.2,60.8,214.3,60.8,214.3,60.8z"/>
	<path d="M225.8,64.8C225.8,64.8,225.8,64.8,225.8,64.8c0.1,0,0.1,0,0.2,0.1l0.5,0.5c-0.2,0.3-0.5,0.5-0.8,0.6
		c-0.3,0.1-0.7,0.2-1.2,0.2c-0.4,0-0.8-0.1-1.1-0.2s-0.6-0.3-0.8-0.6c-0.2-0.2-0.4-0.5-0.5-0.9c-0.1-0.3-0.2-0.7-0.2-1.1
		c0-0.4,0.1-0.8,0.2-1.1c0.1-0.3,0.3-0.6,0.6-0.9c0.3-0.2,0.5-0.4,0.9-0.6c0.3-0.1,0.7-0.2,1.2-0.2c0.2,0,0.4,0,0.6,0.1
		c0.2,0,0.3,0.1,0.5,0.1c0.2,0.1,0.3,0.1,0.4,0.2c0.1,0.1,0.2,0.2,0.4,0.3l-0.4,0.6c0,0-0.1,0.1-0.1,0.1s-0.1,0-0.2,0
		c0,0-0.1,0-0.1,0s-0.1,0-0.1-0.1c0,0-0.1-0.1-0.1-0.1c-0.1,0-0.1-0.1-0.2-0.1c-0.1,0-0.2-0.1-0.3-0.1c-0.1,0-0.2,0-0.3,0
		c-0.2,0-0.4,0-0.6,0.1c-0.2,0.1-0.4,0.2-0.5,0.3c-0.1,0.2-0.2,0.3-0.3,0.5c-0.1,0.2-0.1,0.5-0.1,0.7c0,0.3,0,0.5,0.1,0.7
		c0.1,0.2,0.2,0.4,0.3,0.5c0.1,0.1,0.3,0.3,0.5,0.3c0.2,0.1,0.4,0.1,0.6,0.1c0.1,0,0.2,0,0.3,0c0.1,0,0.2,0,0.3-0.1
		c0.1,0,0.2-0.1,0.2-0.1c0.1,0,0.1-0.1,0.2-0.2c0,0,0.1,0,0.1-0.1C225.7,64.8,225.7,64.8,225.8,64.8z"/>
	<path d="M235.4,63.5c0,0.4-0.1,0.8-0.2,1.1c-0.1,0.3-0.3,0.6-0.6,0.9c-0.2,0.3-0.5,0.4-0.9,0.6c-0.3,0.1-0.7,0.2-1.2,0.2
		c-0.4,0-0.8-0.1-1.2-0.2c-0.3-0.1-0.6-0.3-0.9-0.6c-0.2-0.3-0.4-0.5-0.6-0.9c-0.1-0.3-0.2-0.7-0.2-1.1c0-0.4,0.1-0.8,0.2-1.1
		c0.1-0.3,0.3-0.6,0.6-0.9c0.2-0.2,0.5-0.4,0.9-0.6c0.3-0.1,0.7-0.2,1.2-0.2c0.4,0,0.8,0.1,1.2,0.2c0.3,0.1,0.6,0.3,0.9,0.6
		s0.4,0.5,0.6,0.9C235.3,62.7,235.4,63.1,235.4,63.5z M234.1,63.5c0-0.3,0-0.5-0.1-0.7s-0.2-0.4-0.3-0.5c-0.1-0.1-0.3-0.3-0.5-0.3
		c-0.2-0.1-0.4-0.1-0.6-0.1c-0.2,0-0.5,0-0.7,0.1c-0.2,0.1-0.4,0.2-0.5,0.3c-0.1,0.1-0.2,0.3-0.3,0.5c-0.1,0.2-0.1,0.5-0.1,0.7
		c0,0.3,0,0.5,0.1,0.7c0.1,0.2,0.2,0.4,0.3,0.5c0.1,0.1,0.3,0.3,0.5,0.3c0.2,0.1,0.4,0.1,0.7,0.1c0.2,0,0.5,0,0.6-0.1
		c0.2-0.1,0.3-0.2,0.5-0.3c0.1-0.1,0.2-0.3,0.3-0.5C234.1,64,234.1,63.8,234.1,63.5z"/>
	<path d="M240.2,64.2v2H239v-5.4h1.8c0.4,0,0.7,0,1,0.1c0.3,0.1,0.5,0.2,0.7,0.3c0.2,0.1,0.3,0.3,0.4,0.5c0.1,0.2,0.1,0.4,0.1,0.6
		c0,0.2,0,0.3-0.1,0.5c0,0.2-0.1,0.3-0.2,0.4c-0.1,0.1-0.2,0.3-0.3,0.4c-0.1,0.1-0.3,0.2-0.5,0.3c0.1,0,0.2,0.1,0.2,0.2
		c0.1,0.1,0.1,0.1,0.2,0.2l1.2,1.9h-1.1c-0.2,0-0.4-0.1-0.5-0.2l-0.9-1.6c0-0.1-0.1-0.1-0.1-0.1c-0.1,0-0.1,0-0.2,0H240.2z
		 M240.2,63.3h0.5c0.2,0,0.3,0,0.4-0.1c0.1,0,0.2-0.1,0.3-0.2c0.1-0.1,0.1-0.2,0.2-0.3c0-0.1,0.1-0.2,0.1-0.3c0-0.2-0.1-0.4-0.2-0.6
		c-0.2-0.1-0.4-0.2-0.7-0.2h-0.5V63.3z"/>
</g>
</svg>
