<svg id="Layer_1" data-name="Layer 1" xmlns="http://www.w3.org/2000/svg" viewBox="0 0 1024 256"><defs><style>.cls-1,.cls-2{isolation:isolate;}.cls-2{mix-blend-mode:overlay;}.cls-3{fill:#76c4d5;fill-rule:evenodd;}.cls-4{fill:#77777a;}</style></defs><title>LiquidEOS_Logo</title><g class="cls-1"><g class="cls-1"><g class="cls-2"><path class="cls-3" d="M582.29,196.1a35.68,35.68,0,0,1-5.89-.79,30.1,30.1,0,0,1-7-2.63c-0.87-.44-1.77-0.92-2.74-1.46,4.26-5.91,11.36-15.85,15.09-30.22,0.21-.81.42-1.62,0.6-2.46a78,78,0,0,0,1.87-17.11c0-20.56-10-37.8-21.06-54.4C551,68.76,538.53,50.69,526.39,32.42,521.19,24.59,512.32,10,512.32,10A1.82,1.82,0,0,0,512,9.37a1.79,1.79,0,0,0-.38.66s-5.31,8.2-8.43,12.67C489,43,474.28,63,460.31,83.41c-5.49,8-11.5,16.06-15.73,24.86a76.28,76.28,0,0,0-2.1,60.63,74,74,0,0,0,36.84,39.58,72.23,72.23,0,0,0,31.19,7.05c1.19,0,2.37,0,3.55-.09a83.14,83.14,0,0,0,27.11-6,92.14,92.14,0,0,0,10.25-4.88c1.21,0.77,2.46,1.55,3.77,2.33l0.66,0.38a63.84,63.84,0,0,0,6.73,3.44,56,56,0,0,0,12.91,3.82,73.49,73.49,0,0,0,11.81,1v-19.3c-1.88,0-3.53,0-5-.14M518.1,196a50.14,50.14,0,0,1-6.81.44,51.72,51.72,0,0,1-26.36-7.28,53.8,53.8,0,0,1-16.28-14.91c3.67-1.74,6.95-3.28,16.59-3.28,12.93,0,27,3.67,47.66,19.11A29.88,29.88,0,0,1,518.1,196m42.23-35.65a59.39,59.39,0,0,1-10.64,18.33c-21-17.18-41.68-26.83-62.51-26.83-5.31,0-14.71.31-23.76,3.2-1.16.37-2.31,0.77-3.44,1.23a47.64,47.64,0,0,1-1.93-13.9,58.11,58.11,0,0,1,8.4-30.28l-0.4.63c0.28-.47.57-0.93,0.86-1.4l0.17-.28,0.42-.63,0.72-1.14c11.55-16.51,23.43-32.78,35-49.3,3.12-4.47,8.43-12.67,8.43-12.67a1.79,1.79,0,0,1,.38-0.66,1.82,1.82,0,0,1,.36.66s8.87,14.56,14.06,22.38c7.88,11.86,15.89,23.63,23.87,35.42a56.21,56.21,0,0,1,6.31,9.35,57.95,57.95,0,0,1,3.77,45.87"/></g></g></g><path class="cls-4" d="M398.08,245.48V227.3h2.65V243h6.31v2.43h-9Z"/><path class="cls-4" d="M422.31,245.48V227.3H425v18.18h-2.65Z"/><path class="cls-4" d="M460.24,245.82a7.77,7.77,0,0,1-4.57-1.4,10.8,10.8,0,0,1-5.21,1.4,9.4,9.4,0,0,1-9.34-9.48,9.26,9.26,0,0,1,9.36-9.38,9.37,9.37,0,0,1,9.36,9.43,10.35,10.35,0,0,1-2.24,6.34,4.37,4.37,0,0,0,2.63.64v2.46Zm-3-9.43a6.72,6.72,0,1,0-13.41.12,6.07,6.07,0,0,0,.25,1.77,9.57,9.57,0,0,1,3.46-.57c2.65,0,5.28,1.23,8,3.41A7.09,7.09,0,0,0,457.2,236.39Zm-9.95,3.76a4.06,4.06,0,0,0-2.11.42,6.72,6.72,0,0,0,5.43,2.83,4.16,4.16,0,0,0,2.75-.81C450.69,240.62,448.89,240.15,447.25,240.15Z"/><path class="cls-4" d="M488.16,239.61a6.13,6.13,0,0,1-1.84,4.67,6.61,6.61,0,0,1-8.5,0,6.13,6.13,0,0,1-1.84-4.67V227.3h2.65v12.23c0,3.37,2.46,3.86,3.44,3.86s3.44-.49,3.44-3.86V227.3h2.65v12.31Z"/><path class="cls-4" d="M505.23,245.48V227.3h2.65v18.18h-2.65Z"/><path class="cls-4" d="M524.72,227.3h5.9c3.78,0,6,1.45,7.42,3.34a10.3,10.3,0,0,1,1.87,5.8,9.62,9.62,0,0,1-2.28,6.41,9.5,9.5,0,0,1-7.1,2.63h-5.8V227.3ZM527.37,243h3.17c3.19,0,6.71-1.6,6.71-6.61,0-2.75-1.69-6.71-6.66-6.71h-3.22V243Z"/><path class="cls-4" d="M556,245.48V227.3h9.8v2.43h-7.15v5.36h7.15v2.43h-7.15V243h7.15v2.43H556Z"/><path class="cls-4" d="M591,245.82a9.43,9.43,0,1,1,9.46-9.38A9.46,9.46,0,0,1,591,245.82Zm0-16.44a7,7,0,1,0,6.81,7.08A6.88,6.88,0,0,0,591,229.39Z"/><path class="cls-4" d="M617.9,240.1c0,0.61.27,3.29,2.95,3.29a2.84,2.84,0,0,0,2.92-3.07c0-2-1.67-2.48-2.92-3-2.43-.93-3-1.23-3.86-2a4.82,4.82,0,0,1-1.23-3.41,5,5,0,0,1,5.09-4.94,4.89,4.89,0,0,1,5.21,5.06H623.4a2.44,2.44,0,0,0-2.55-2.63,2.5,2.5,0,0,0-2.43,2.48c0,1.74,1.65,2.21,2.43,2.51,2.28,0.86,5.58,1.57,5.58,5.95a5.31,5.31,0,0,1-5.58,5.5,5.45,5.45,0,0,1-5.6-5.72h2.65Z"/></svg>