<?xml version="1.0" encoding="utf-8"?>
<!-- Generator: Adobe Illustrator 21.1.0, SVG Export Plug-In . SVG Version: 6.00 Build 0)  -->
<svg version="1.1" id="Layer_1" xmlns="http://www.w3.org/2000/svg" xmlns:xlink="http://www.w3.org/1999/xlink" x="0px" y="0px"
	 viewBox="0 0 1024 242.9" style="enable-background:new 0 0 1024 242.9;" xml:space="preserve">
<style type="text/css">
	.st0{stroke:#12100B;}
	.st1{fill:none;stroke:#12100B;stroke-width:2;stroke-miterlimit:10;}
</style>
<path d="M537,482.6v2.7h-23.8v18.3H533v2.7h-19.8v18.9H537v2.7h-27.1v-45.3H537z"/>
<path d="M588.1,505.2c0,3.5-0.5,6.7-1.6,9.5c-1,2.8-2.5,5.3-4.4,7.3c-1.9,2-4.2,3.6-6.8,4.7c-2.6,1.1-5.6,1.6-8.8,1.6
	c-3.2,0-6.1-0.5-8.7-1.6c-2.6-1.1-4.9-2.7-6.8-4.7c-1.9-2-3.4-4.4-4.4-7.3c-1.1-2.8-1.6-6-1.6-9.5c0-3.5,0.5-6.6,1.6-9.5
	c1.1-2.8,2.5-5.3,4.4-7.3c1.9-2,4.2-3.6,6.8-4.7c2.6-1.1,5.6-1.7,8.7-1.7c3.2,0,6.2,0.5,8.8,1.6c2.6,1.1,4.9,2.7,6.8,4.7
	c1.9,2,3.4,4.5,4.4,7.3C587.5,498.5,588.1,501.7,588.1,505.2z M584.7,505.2c0-3.2-0.4-6-1.3-8.5c-0.9-2.5-2.1-4.7-3.7-6.4
	c-1.6-1.7-3.5-3.1-5.7-4s-4.7-1.4-7.5-1.4c-2.7,0-5.1,0.5-7.4,1.4s-4.1,2.3-5.8,4c-1.6,1.7-2.9,3.9-3.7,6.4
	c-0.9,2.5-1.3,5.4-1.3,8.5c0,3.2,0.4,6,1.3,8.5c0.9,2.5,2.1,4.6,3.7,6.4c1.6,1.7,3.5,3.1,5.8,4c2.2,0.9,4.7,1.4,7.4,1.4
	c2.7,0,5.2-0.5,7.5-1.4c2.2-0.9,4.2-2.3,5.7-4c1.6-1.7,2.8-3.9,3.7-6.4C584.2,511.2,584.7,508.4,584.7,505.2z"/>
<path d="M620.6,488.1c-0.2,0.4-0.5,0.5-0.8,0.5c-0.3,0-0.6-0.2-1.1-0.6c-0.4-0.4-1-0.8-1.8-1.3c-0.7-0.5-1.7-0.9-2.8-1.3
	c-1.1-0.4-2.5-0.6-4.2-0.6c-1.6,0-3.1,0.2-4.3,0.7c-1.3,0.5-2.3,1.1-3.1,1.9c-0.8,0.8-1.5,1.7-1.9,2.8c-0.4,1.1-0.7,2.2-0.7,3.4
	c0,1.5,0.3,2.8,1,3.8c0.7,1,1.5,1.9,2.6,2.6c1.1,0.7,2.3,1.3,3.6,1.8s2.8,1,4.2,1.4c1.4,0.5,2.8,1,4.2,1.6c1.4,0.6,2.6,1.3,3.6,2.1
	c1.1,0.9,1.9,1.9,2.6,3.2c0.7,1.2,1,2.8,1,4.7c0,1.9-0.3,3.7-1,5.4c-0.7,1.7-1.6,3.1-2.8,4.4s-2.8,2.2-4.5,2.9s-3.8,1.1-6.1,1.1
	c-3,0-5.6-0.5-7.7-1.6c-2.2-1.1-4-2.5-5.7-4.3l0.9-1.4c0.3-0.3,0.6-0.5,0.9-0.5c0.2,0,0.4,0.1,0.7,0.4c0.3,0.3,0.7,0.6,1.1,0.9
	c0.4,0.4,0.9,0.8,1.5,1.2c0.6,0.4,1.3,0.8,2.1,1.2c0.8,0.4,1.7,0.7,2.7,0.9c1,0.3,2.2,0.4,3.5,0.4c1.8,0,3.4-0.3,4.8-0.8
	s2.6-1.3,3.6-2.2c1-0.9,1.7-2.1,2.2-3.3c0.5-1.3,0.8-2.7,0.8-4.1c0-1.6-0.3-2.9-1-4c-0.7-1-1.5-1.9-2.6-2.6s-2.3-1.3-3.6-1.7
	s-2.8-0.9-4.2-1.4c-1.4-0.4-2.8-0.9-4.2-1.5s-2.6-1.3-3.6-2.1c-1.1-0.9-1.9-1.9-2.6-3.2c-0.7-1.3-1-2.9-1-4.8c0-1.5,0.3-3,0.9-4.4
	c0.6-1.4,1.4-2.7,2.5-3.7c1.1-1.1,2.5-1.9,4.1-2.6c1.6-0.7,3.5-1,5.6-1c2.3,0,4.5,0.4,6.3,1.1c1.9,0.7,3.6,1.9,5.1,3.4L620.6,488.1z
	"/>
<path class="st0" d="M282.1,528.2H305v0.7h-23.6v-44.8h0.8V528.2z"/>
<path class="st0" d="M316,528.9h-0.8v-44.8h0.8V528.9z"/>
<path class="st0" d="M360.9,526.8l11.9,12.5h-0.7c-0.2,0-0.3,0-0.4-0.1c-0.1-0.1-0.2-0.1-0.6-0.6l-11.2-11.9"/>
<path class="st0" d="M399.5,528.8c2.4,0,4.6-0.4,6.5-1.3c1.9-0.9,3.5-2,4.8-3.5c1.3-1.5,2.3-3.2,3-5.2c0.7-2,1.1-4.1,1.1-6.4v-28.2
	h0.8v28.2c0,2.4-0.4,4.6-1.1,6.7c-0.7,2.1-1.8,3.9-3.2,5.5c-1.4,1.6-3.1,2.8-5.1,3.7c-2,0.9-4.2,1.4-6.7,1.4c-2.5,0-4.7-0.5-6.7-1.4
	c-2-0.9-3.7-2.1-5.1-3.7c-1.4-1.6-2.5-3.4-3.2-5.5c-0.7-2.1-1.1-4.3-1.1-6.7v-28.2h0.8v28.1c0,2.3,0.4,4.4,1.1,6.4
	c0.7,2,1.7,3.8,3,5.3c1.3,1.5,2.9,2.7,4.8,3.6C394.9,528.4,397.1,528.8,399.5,528.8z"/>
<path class="st0" d="M432.8,528.9H432v-44.8h0.8V528.9z"/>
<path class="st0" d="M486.2,506.5c0,3.5-0.5,6.7-1.5,9.5c-1,2.8-2.4,5.1-4.3,7c-1.8,1.9-4,3.4-6.5,4.4c-2.5,1-5.3,1.5-8.4,1.5h-16
	v-44.8h16c3.1,0,5.9,0.5,8.4,1.5c2.5,1,4.7,2.5,6.5,4.4c1.8,1.9,3.2,4.3,4.3,7C485.7,499.8,486.2,503,486.2,506.5z M485.3,506.5
	c0-3.5-0.5-6.6-1.5-9.3s-2.3-5-4.1-6.8c-1.7-1.9-3.8-3.3-6.3-4.2c-2.4-1-5.1-1.4-8.1-1.4h-15.2v43.5h15.2c2.9,0,5.6-0.5,8.1-1.4
	c2.4-1,4.5-2.4,6.3-4.2s3.1-4.1,4.1-6.8C484.9,513.1,485.3,510,485.3,506.5z"/>
<path class="st1" d="M371.2,508.5c0,12.6-9.3,20.9-20.7,20.9c-11.4,0-20.7-8.2-20.7-20.9c0-12.6,20.7-31.7,20.7-31.7
	S371.2,495.9,371.2,508.5z"/>
<g>
	<path d="M432.6,551.2v2.7h-1.9v-8h2.8c0.6,0,1,0.1,1.5,0.2c0.4,0.1,0.7,0.3,1,0.6s0.5,0.5,0.6,0.8c0.1,0.3,0.2,0.7,0.2,1
		c0,0.4-0.1,0.8-0.2,1.1c-0.1,0.3-0.3,0.6-0.6,0.9c-0.3,0.2-0.6,0.4-1,0.6s-0.9,0.2-1.4,0.2H432.6z M432.6,549.8h1
		c0.5,0,0.8-0.1,1-0.3c0.2-0.2,0.3-0.6,0.3-1c0-0.2,0-0.4-0.1-0.5c-0.1-0.1-0.1-0.3-0.3-0.4c-0.1-0.1-0.3-0.2-0.4-0.2
		s-0.4-0.1-0.6-0.1h-1V549.8z"/>
	<path d="M450,549.9c0,0.6-0.1,1.1-0.3,1.6c-0.2,0.5-0.5,0.9-0.8,1.3c-0.4,0.4-0.8,0.7-1.3,0.9c-0.5,0.2-1.1,0.3-1.7,0.3
		c-0.6,0-1.2-0.1-1.7-0.3c-0.5-0.2-1-0.5-1.3-0.9s-0.6-0.8-0.8-1.3c-0.2-0.5-0.3-1-0.3-1.6c0-0.6,0.1-1.1,0.3-1.6
		c0.2-0.5,0.5-0.9,0.8-1.3c0.4-0.4,0.8-0.7,1.3-0.9c0.5-0.2,1.1-0.3,1.7-0.3c0.6,0,1.2,0.1,1.7,0.3c0.5,0.2,0.9,0.5,1.3,0.9
		c0.4,0.4,0.6,0.8,0.8,1.3C449.9,548.8,450,549.3,450,549.9z M448.1,549.9c0-0.4-0.1-0.8-0.2-1.1c-0.1-0.3-0.3-0.6-0.4-0.8
		c-0.2-0.2-0.4-0.4-0.7-0.5c-0.3-0.1-0.6-0.2-1-0.2c-0.4,0-0.7,0.1-1,0.2c-0.3,0.1-0.5,0.3-0.7,0.5c-0.2,0.2-0.3,0.5-0.4,0.8
		s-0.2,0.7-0.2,1.1c0,0.4,0.1,0.8,0.2,1.1c0.1,0.3,0.3,0.6,0.4,0.8c0.2,0.2,0.4,0.4,0.7,0.5c0.3,0.1,0.6,0.2,1,0.2
		c0.4,0,0.7-0.1,1-0.2c0.3-0.1,0.5-0.3,0.7-0.5c0.2-0.2,0.3-0.5,0.4-0.8C448.1,550.7,448.1,550.3,448.1,549.9z"/>
	<path d="M454.7,545.9h1.6c0.2,0,0.3,0,0.4,0.1c0.1,0.1,0.2,0.2,0.2,0.3l1.1,4.2c0,0.1,0.1,0.3,0.1,0.4c0,0.2,0.1,0.3,0.1,0.5
		c0-0.2,0.1-0.3,0.1-0.5s0.1-0.3,0.1-0.4l1.3-4.2c0-0.1,0.1-0.2,0.2-0.3c0.1-0.1,0.2-0.1,0.4-0.1h0.6c0.2,0,0.3,0,0.4,0.1
		c0.1,0.1,0.2,0.2,0.2,0.3l1.3,4.2c0,0.1,0.1,0.3,0.1,0.4c0,0.1,0.1,0.3,0.1,0.5c0-0.2,0.1-0.3,0.1-0.5c0-0.1,0.1-0.3,0.1-0.4
		l1.1-4.2c0-0.1,0.1-0.2,0.2-0.3c0.1-0.1,0.2-0.1,0.4-0.1h1.5l-2.5,8h-1.7l-1.5-5c0-0.1-0.1-0.2-0.1-0.3c0-0.1-0.1-0.2-0.1-0.3
		c0,0.1-0.1,0.2-0.1,0.3s-0.1,0.2-0.1,0.3l-1.5,5h-1.7L454.7,545.9z"/>
	<path d="M476.7,545.9v1.4h-3.3v1.9h2.5v1.4h-2.5v1.9h3.3v1.4h-5.2v-8H476.7z"/>
	<path d="M484,551v3h-1.9v-8h2.6c0.6,0,1.1,0.1,1.5,0.2c0.4,0.1,0.7,0.3,1,0.5c0.3,0.2,0.4,0.5,0.6,0.8c0.1,0.3,0.2,0.6,0.2,0.9
		c0,0.3,0,0.5-0.1,0.7c-0.1,0.2-0.2,0.4-0.3,0.6c-0.1,0.2-0.3,0.4-0.5,0.5c-0.2,0.2-0.4,0.3-0.7,0.4c0.1,0.1,0.2,0.1,0.3,0.2
		s0.2,0.2,0.3,0.3l1.7,2.8H487c-0.3,0-0.5-0.1-0.7-0.4l-1.3-2.3c-0.1-0.1-0.1-0.2-0.2-0.2c-0.1,0-0.2-0.1-0.3-0.1H484z M484,549.7
		h0.7c0.3,0,0.5,0,0.6-0.1c0.2-0.1,0.3-0.2,0.4-0.3c0.1-0.1,0.2-0.2,0.2-0.4c0.1-0.2,0.1-0.3,0.1-0.5c0-0.4-0.1-0.6-0.3-0.8
		c-0.2-0.2-0.6-0.3-1.1-0.3H484V549.7z"/>
	<path d="M499,545.9v1.4h-3.3v1.9h2.5v1.4h-2.5v1.9h3.3v1.4h-5.2v-8H499z"/>
	<path d="M511.7,549.9c0,0.6-0.1,1.1-0.3,1.6c-0.2,0.5-0.5,0.9-0.8,1.3s-0.8,0.6-1.3,0.8c-0.5,0.2-1.1,0.3-1.7,0.3h-3.1v-8h3.1
		c0.6,0,1.2,0.1,1.7,0.3c0.5,0.2,0.9,0.5,1.3,0.8s0.6,0.8,0.8,1.3C511.6,548.8,511.7,549.3,511.7,549.9z M509.8,549.9
		c0-0.4-0.1-0.8-0.2-1.1s-0.2-0.6-0.4-0.8c-0.2-0.2-0.4-0.4-0.7-0.5s-0.6-0.2-1-0.2h-1.2v5.2h1.2c0.4,0,0.7-0.1,1-0.2
		s0.5-0.3,0.7-0.5c0.2-0.2,0.3-0.5,0.4-0.8S509.8,550.3,509.8,549.9z"/>
	<path d="M523.5,553.9v-8h2.9c0.6,0,1,0.1,1.4,0.2s0.7,0.2,1,0.4c0.2,0.2,0.4,0.4,0.5,0.7c0.1,0.3,0.2,0.6,0.2,0.9
		c0,0.2,0,0.4-0.1,0.5c-0.1,0.2-0.1,0.3-0.2,0.5c-0.1,0.1-0.3,0.3-0.4,0.4c-0.2,0.1-0.4,0.2-0.6,0.3c0.5,0.1,0.9,0.3,1.2,0.6
		s0.4,0.7,0.4,1.1c0,0.3-0.1,0.7-0.2,1s-0.3,0.5-0.6,0.8c-0.3,0.2-0.6,0.4-0.9,0.5c-0.4,0.1-0.8,0.2-1.3,0.2H523.5z M525.4,549.3h1
		c0.2,0,0.4,0,0.6,0c0.2,0,0.3-0.1,0.4-0.2c0.1-0.1,0.2-0.2,0.3-0.3c0.1-0.1,0.1-0.3,0.1-0.5c0-0.2,0-0.3-0.1-0.5
		c0-0.1-0.1-0.2-0.2-0.3c-0.1-0.1-0.2-0.1-0.4-0.2s-0.3,0-0.5,0h-1.1V549.3z M525.4,550.5v2h1.3c0.2,0,0.4,0,0.6-0.1
		c0.2-0.1,0.3-0.1,0.4-0.2c0.1-0.1,0.1-0.2,0.2-0.3c0-0.1,0-0.3,0-0.4c0-0.1,0-0.3-0.1-0.4c0-0.1-0.1-0.2-0.2-0.3
		c-0.1-0.1-0.2-0.1-0.4-0.2c-0.2,0-0.3-0.1-0.6-0.1H525.4z"/>
	<path d="M539.1,550.9v3h-1.9v-3l-2.9-5h1.6c0.2,0,0.3,0,0.4,0.1s0.2,0.2,0.2,0.3l1.1,2.3c0.1,0.2,0.2,0.4,0.3,0.5
		c0.1,0.2,0.1,0.3,0.2,0.5c0.1-0.2,0.1-0.3,0.2-0.5c0.1-0.2,0.2-0.3,0.2-0.5l1.1-2.3c0,0,0.1-0.1,0.1-0.1c0,0,0.1-0.1,0.1-0.1
		c0,0,0.1-0.1,0.2-0.1c0.1,0,0.1,0,0.2,0h1.6L539.1,550.9z"/>
	<path d="M553.5,553.9v-8h2.9c0.6,0,1,0.1,1.4,0.2s0.7,0.2,1,0.4c0.2,0.2,0.4,0.4,0.5,0.7c0.1,0.3,0.2,0.6,0.2,0.9
		c0,0.2,0,0.4-0.1,0.5c-0.1,0.2-0.1,0.3-0.2,0.5c-0.1,0.1-0.3,0.3-0.4,0.4c-0.2,0.1-0.4,0.2-0.6,0.3c0.5,0.1,0.9,0.3,1.2,0.6
		s0.4,0.7,0.4,1.1c0,0.3-0.1,0.7-0.2,1s-0.3,0.5-0.6,0.8c-0.3,0.2-0.6,0.4-0.9,0.5c-0.4,0.1-0.8,0.2-1.3,0.2H553.5z M555.4,549.3h1
		c0.2,0,0.4,0,0.6,0c0.2,0,0.3-0.1,0.4-0.2c0.1-0.1,0.2-0.2,0.3-0.3c0.1-0.1,0.1-0.3,0.1-0.5c0-0.2,0-0.3-0.1-0.5
		c0-0.1-0.1-0.2-0.2-0.3c-0.1-0.1-0.2-0.1-0.4-0.2s-0.3,0-0.5,0h-1.1V549.3z M555.4,550.5v2h1.3c0.2,0,0.4,0,0.6-0.1
		c0.2-0.1,0.3-0.1,0.4-0.2c0.1-0.1,0.1-0.2,0.2-0.3c0-0.1,0-0.3,0-0.4c0-0.1,0-0.3-0.1-0.4c0-0.1-0.1-0.2-0.2-0.3
		c-0.1-0.1-0.2-0.1-0.4-0.2c-0.2,0-0.3-0.1-0.6-0.1H555.4z"/>
	<path d="M572.6,553.9h-1.4c-0.2,0-0.3,0-0.4-0.1s-0.2-0.2-0.2-0.3l-0.5-1.4h-3l-0.5,1.4c0,0.1-0.1,0.2-0.2,0.3
		c-0.1,0.1-0.2,0.1-0.4,0.1h-1.5l3.1-8h1.9L572.6,553.9z M567.4,550.9h2.2l-0.7-2.2c0-0.1-0.1-0.3-0.2-0.5c-0.1-0.2-0.1-0.4-0.2-0.6
		c-0.1,0.2-0.1,0.4-0.2,0.6s-0.1,0.4-0.2,0.5L567.4,550.9z"/>
	<path d="M578.8,545.9c0.1,0,0.1,0,0.1,0c0,0,0.1,0,0.1,0.1c0,0,0.1,0.1,0.1,0.1l3.8,4.8c0-0.2,0-0.3,0-0.4c0-0.1,0-0.3,0-0.4v-4.2
		h1.6v8h-1c-0.1,0-0.3,0-0.4-0.1c-0.1,0-0.2-0.1-0.3-0.2l-3.8-4.8c0,0.1,0,0.3,0,0.4c0,0.1,0,0.3,0,0.4v4.3h-1.6v-8h1
		C578.7,545.9,578.8,545.9,578.8,545.9z"/>
	<path d="M595.7,551.8c0,0,0.1,0,0.1,0s0.1,0,0.1,0.1l0.7,0.8c-0.3,0.4-0.7,0.7-1.2,1c-0.5,0.2-1.1,0.3-1.7,0.3
		c-0.6,0-1.2-0.1-1.6-0.3s-0.9-0.5-1.2-0.9c-0.3-0.4-0.6-0.8-0.8-1.3c-0.2-0.5-0.3-1-0.3-1.6c0-0.6,0.1-1.1,0.3-1.6
		c0.2-0.5,0.5-0.9,0.9-1.3c0.4-0.4,0.8-0.6,1.3-0.8c0.5-0.2,1.1-0.3,1.7-0.3c0.3,0,0.6,0,0.8,0.1c0.3,0.1,0.5,0.1,0.7,0.2
		c0.2,0.1,0.4,0.2,0.6,0.3c0.2,0.1,0.4,0.3,0.5,0.4l-0.6,0.8c0,0.1-0.1,0.1-0.1,0.1s-0.1,0.1-0.2,0.1c-0.1,0-0.1,0-0.2,0
		s-0.1-0.1-0.2-0.1c-0.1,0-0.1-0.1-0.2-0.1s-0.2-0.1-0.3-0.1c-0.1,0-0.2-0.1-0.4-0.1c-0.1,0-0.3,0-0.5,0c-0.3,0-0.6,0.1-0.9,0.2
		s-0.5,0.3-0.7,0.5s-0.4,0.5-0.5,0.8c-0.1,0.3-0.2,0.7-0.2,1.1c0,0.4,0.1,0.8,0.2,1.1c0.1,0.3,0.3,0.6,0.5,0.8
		c0.2,0.2,0.4,0.4,0.7,0.5c0.3,0.1,0.5,0.2,0.8,0.2c0.2,0,0.3,0,0.5,0c0.1,0,0.3,0,0.4-0.1c0.1,0,0.2-0.1,0.3-0.2
		c0.1-0.1,0.2-0.1,0.3-0.2c0,0,0.1-0.1,0.1-0.1C595.6,551.9,595.7,551.8,595.7,551.8z"/>
	<path d="M609.9,549.9c0,0.6-0.1,1.1-0.3,1.6c-0.2,0.5-0.5,0.9-0.8,1.3s-0.8,0.7-1.3,0.9s-1.1,0.3-1.7,0.3s-1.2-0.1-1.7-0.3
		s-1-0.5-1.3-0.9s-0.6-0.8-0.8-1.3c-0.2-0.5-0.3-1-0.3-1.6c0-0.6,0.1-1.1,0.3-1.6c0.2-0.5,0.5-0.9,0.8-1.3c0.4-0.4,0.8-0.7,1.3-0.9
		s1.1-0.3,1.7-0.3s1.2,0.1,1.7,0.3s0.9,0.5,1.3,0.9s0.6,0.8,0.8,1.3C609.8,548.8,609.9,549.3,609.9,549.9z M608,549.9
		c0-0.4-0.1-0.8-0.2-1.1s-0.2-0.6-0.4-0.8c-0.2-0.2-0.4-0.4-0.7-0.5c-0.3-0.1-0.6-0.2-1-0.2c-0.4,0-0.7,0.1-1,0.2
		c-0.3,0.1-0.5,0.3-0.7,0.5c-0.2,0.2-0.3,0.5-0.4,0.8s-0.2,0.7-0.2,1.1c0,0.4,0.1,0.8,0.2,1.1c0.1,0.3,0.2,0.6,0.4,0.8
		c0.2,0.2,0.4,0.4,0.7,0.5c0.3,0.1,0.6,0.2,1,0.2c0.4,0,0.7-0.1,1-0.2c0.3-0.1,0.5-0.3,0.7-0.5c0.2-0.2,0.3-0.5,0.4-0.8
		C607.9,550.7,608,550.3,608,549.9z"/>
	<path d="M617,551v3h-1.9v-8h2.6c0.6,0,1.1,0.1,1.5,0.2c0.4,0.1,0.7,0.3,1,0.5c0.3,0.2,0.4,0.5,0.6,0.8c0.1,0.3,0.2,0.6,0.2,0.9
		c0,0.3,0,0.5-0.1,0.7c-0.1,0.2-0.2,0.4-0.3,0.6c-0.1,0.2-0.3,0.4-0.5,0.5c-0.2,0.2-0.4,0.3-0.7,0.4c0.1,0.1,0.2,0.1,0.3,0.2
		s0.2,0.2,0.3,0.3l1.7,2.8H620c-0.3,0-0.5-0.1-0.7-0.4l-1.3-2.3c-0.1-0.1-0.1-0.2-0.2-0.2c-0.1,0-0.2-0.1-0.3-0.1H617z M617,549.7
		h0.7c0.3,0,0.5,0,0.6-0.1c0.2-0.1,0.3-0.2,0.4-0.3c0.1-0.1,0.2-0.2,0.2-0.4c0.1-0.2,0.1-0.3,0.1-0.5c0-0.4-0.1-0.6-0.3-0.8
		c-0.2-0.2-0.6-0.3-1.1-0.3H617V549.7z"/>
</g>
<path d="M580.5,342.7v2.7h-23.8v18.3h19.8v2.7h-19.8v18.9h23.8v2.7h-27.1v-45.3H580.5z"/>
<path d="M631.6,365.4c0,3.5-0.5,6.7-1.6,9.5c-1,2.8-2.5,5.3-4.4,7.3c-1.9,2-4.2,3.6-6.8,4.7c-2.6,1.1-5.6,1.6-8.8,1.6
	c-3.2,0-6.1-0.5-8.7-1.6c-2.6-1.1-4.9-2.7-6.8-4.7c-1.9-2-3.4-4.4-4.4-7.3c-1.1-2.8-1.6-6-1.6-9.5c0-3.5,0.5-6.6,1.6-9.5
	c1.1-2.8,2.5-5.3,4.4-7.3c1.9-2,4.2-3.6,6.8-4.7c2.6-1.1,5.6-1.7,8.7-1.7c3.2,0,6.2,0.5,8.8,1.6c2.6,1.1,4.9,2.7,6.8,4.7
	c1.9,2,3.4,4.5,4.4,7.3C631,358.7,631.6,361.9,631.6,365.4z M628.2,365.4c0-3.2-0.4-6-1.3-8.5c-0.9-2.5-2.1-4.7-3.7-6.4
	c-1.6-1.7-3.5-3.1-5.7-4s-4.7-1.4-7.5-1.4c-2.7,0-5.1,0.5-7.4,1.4s-4.1,2.3-5.8,4c-1.6,1.7-2.9,3.9-3.7,6.4
	c-0.9,2.5-1.3,5.4-1.3,8.5c0,3.2,0.4,6,1.3,8.5c0.9,2.5,2.1,4.6,3.7,6.4c1.6,1.7,3.5,3.1,5.8,4c2.2,0.9,4.7,1.4,7.4,1.4
	c2.7,0,5.2-0.5,7.5-1.4c2.2-0.9,4.2-2.3,5.7-4c1.6-1.7,2.8-3.9,3.7-6.4C627.7,371.4,628.2,368.5,628.2,365.4z"/>
<path d="M664.1,348.2c-0.2,0.4-0.5,0.5-0.8,0.5c-0.3,0-0.6-0.2-1.1-0.6c-0.4-0.4-1-0.8-1.8-1.3c-0.7-0.5-1.7-0.9-2.8-1.3
	c-1.1-0.4-2.5-0.6-4.2-0.6c-1.6,0-3.1,0.2-4.3,0.7c-1.3,0.5-2.3,1.1-3.1,1.9c-0.8,0.8-1.5,1.7-1.9,2.8c-0.4,1.1-0.7,2.2-0.7,3.4
	c0,1.5,0.3,2.8,1,3.8c0.7,1,1.5,1.9,2.6,2.6c1.1,0.7,2.3,1.3,3.6,1.8s2.8,1,4.2,1.4c1.4,0.5,2.8,1,4.2,1.6c1.4,0.6,2.6,1.3,3.6,2.1
	c1.1,0.9,1.9,1.9,2.6,3.2c0.7,1.2,1,2.8,1,4.7c0,1.9-0.3,3.7-1,5.4c-0.7,1.7-1.6,3.1-2.8,4.4s-2.8,2.2-4.5,2.9s-3.8,1.1-6.1,1.1
	c-3,0-5.6-0.5-7.7-1.6c-2.2-1.1-4-2.5-5.7-4.3l0.9-1.4c0.3-0.3,0.6-0.5,0.9-0.5c0.2,0,0.4,0.1,0.7,0.4c0.3,0.3,0.7,0.6,1.1,0.9
	c0.4,0.4,0.9,0.8,1.5,1.2c0.6,0.4,1.3,0.8,2.1,1.2c0.8,0.4,1.7,0.7,2.7,0.9c1,0.3,2.2,0.4,3.5,0.4c1.8,0,3.4-0.3,4.8-0.8
	s2.6-1.3,3.6-2.2c1-0.9,1.7-2.1,2.2-3.3c0.5-1.3,0.8-2.7,0.8-4.1c0-1.6-0.3-2.9-1-4c-0.7-1-1.5-1.9-2.6-2.6s-2.3-1.3-3.6-1.7
	s-2.8-0.9-4.2-1.4c-1.4-0.4-2.8-0.9-4.2-1.5s-2.6-1.3-3.6-2.1c-1.1-0.9-1.9-1.9-2.6-3.2c-0.7-1.3-1-2.9-1-4.8c0-1.5,0.3-3,0.9-4.4
	c0.6-1.4,1.4-2.7,2.5-3.7c1.1-1.1,2.5-1.9,4.1-2.6c1.6-0.7,3.5-1,5.6-1c2.3,0,4.5,0.4,6.3,1.1c1.9,0.7,3.6,1.9,5.1,3.4L664.1,348.2z
	"/>
<path class="st0" d="M325.6,388.4h22.8v0.7h-23.6v-44.8h0.8V388.4z"/>
<path class="st0" d="M359.5,389.1h-0.8v-44.8h0.8V389.1z"/>
<path class="st0" d="M404.4,387l11.9,12.5h-0.7c-0.2,0-0.3,0-0.4-0.1c-0.1-0.1-0.2-0.1-0.6-0.6l-11.2-11.9"/>
<path class="st0" d="M443,389c2.4,0,4.6-0.4,6.5-1.3c1.9-0.9,3.5-2,4.8-3.5c1.3-1.5,2.3-3.2,3-5.2c0.7-2,1.1-4.1,1.1-6.4v-28.2h0.8
	v28.2c0,2.4-0.4,4.6-1.1,6.7c-0.7,2.1-1.8,3.9-3.2,5.5c-1.4,1.6-3.1,2.8-5.1,3.7c-2,0.9-4.2,1.4-6.7,1.4c-2.5,0-4.7-0.5-6.7-1.4
	c-2-0.9-3.7-2.1-5.1-3.7c-1.4-1.6-2.5-3.4-3.2-5.5c-0.7-2.1-1.1-4.3-1.1-6.7v-28.2h0.8v28.1c0,2.3,0.4,4.4,1.1,6.4
	c0.7,2,1.7,3.8,3,5.3c1.3,1.5,2.9,2.7,4.8,3.6C438.4,388.5,440.6,389,443,389z"/>
<path class="st0" d="M476.3,389.1h-0.8v-44.8h0.8V389.1z"/>
<path class="st0" d="M529.7,366.7c0,3.5-0.5,6.7-1.5,9.5c-1,2.8-2.4,5.1-4.3,7c-1.8,1.9-4,3.4-6.5,4.4c-2.5,1-5.3,1.5-8.4,1.5h-16
	v-44.8h16c3.1,0,5.9,0.5,8.4,1.5c2.5,1,4.7,2.5,6.5,4.4c1.8,1.9,3.2,4.3,4.3,7C529.2,360,529.7,363.2,529.7,366.7z M528.8,366.7
	c0-3.5-0.5-6.6-1.5-9.3s-2.3-5-4.1-6.8c-1.7-1.9-3.8-3.3-6.3-4.2c-2.4-1-5.1-1.4-8.1-1.4h-15.2v43.5h15.2c2.9,0,5.6-0.5,8.1-1.4
	c2.4-1,4.5-2.4,6.3-4.2s3.1-4.1,4.1-6.8C528.4,373.3,528.8,370.2,528.8,366.7z"/>
<path class="st1" d="M414.7,368.7c0,12.6-9.3,20.9-20.7,20.9c-11.4,0-20.7-8.2-20.7-20.9c0-12.6,20.7-31.7,20.7-31.7
	S414.7,356,414.7,368.7z"/>
<g>
	<path d="M587.6-130.1v1.8h-16.2v12.4h13.5v1.8h-13.5v12.8h16.2v1.8h-18.4v-30.8H587.6z"/>
	<path d="M622.3-114.7c0,2.4-0.4,4.5-1.1,6.5c-0.7,1.9-1.7,3.6-3,5c-1.3,1.4-2.8,2.4-4.6,3.2c-1.8,0.7-3.8,1.1-6,1.1
		c-2.2,0-4.1-0.4-5.9-1.1c-1.8-0.7-3.3-1.8-4.6-3.2c-1.3-1.4-2.3-3-3-5c-0.7-1.9-1.1-4.1-1.1-6.5c0-2.4,0.4-4.5,1.1-6.4
		c0.7-1.9,1.7-3.6,3-5c1.3-1.4,2.8-2.4,4.6-3.2c1.8-0.8,3.8-1.1,5.9-1.1c2.2,0,4.2,0.4,6,1.1c1.8,0.7,3.3,1.8,4.6,3.2
		c1.3,1.4,2.3,3,3,5C621.9-119.2,622.3-117.1,622.3-114.7z M620-114.7c0-2.1-0.3-4.1-0.9-5.8c-0.6-1.7-1.4-3.2-2.5-4.3
		c-1.1-1.2-2.4-2.1-3.9-2.7c-1.5-0.6-3.2-0.9-5.1-0.9c-1.8,0-3.5,0.3-5,0.9c-1.5,0.6-2.8,1.5-3.9,2.7c-1.1,1.2-1.9,2.6-2.5,4.3
		c-0.6,1.7-0.9,3.6-0.9,5.8c0,2.2,0.3,4.1,0.9,5.8c0.6,1.7,1.4,3.1,2.5,4.3c1.1,1.2,2.4,2.1,3.9,2.7c1.5,0.6,3.2,0.9,5,0.9
		c1.9,0,3.5-0.3,5.1-0.9c1.5-0.6,2.8-1.5,3.9-2.7c1.1-1.2,1.9-2.6,2.5-4.3C619.7-110.6,620-112.5,620-114.7z"/>
	<path d="M644.4-126.3c-0.1,0.2-0.3,0.4-0.6,0.4c-0.2,0-0.4-0.1-0.7-0.4c-0.3-0.3-0.7-0.6-1.2-0.9c-0.5-0.3-1.1-0.6-1.9-0.9
		c-0.8-0.3-1.7-0.4-2.8-0.4c-1.1,0-2.1,0.2-3,0.5c-0.9,0.3-1.6,0.8-2.1,1.3c-0.6,0.6-1,1.2-1.3,1.9c-0.3,0.7-0.4,1.5-0.4,2.3
		c0,1,0.2,1.9,0.7,2.6c0.4,0.7,1,1.3,1.8,1.7c0.7,0.5,1.5,0.9,2.5,1.2s1.9,0.6,2.8,1c1,0.3,1.9,0.7,2.8,1.1c0.9,0.4,1.7,0.9,2.5,1.4
		c0.7,0.6,1.3,1.3,1.8,2.1c0.4,0.8,0.7,1.9,0.7,3.2c0,1.3-0.2,2.5-0.7,3.6c-0.4,1.1-1.1,2.1-1.9,3c-0.8,0.8-1.9,1.5-3.1,2
		c-1.2,0.5-2.6,0.7-4.2,0.7c-2,0-3.8-0.4-5.2-1.1c-1.5-0.7-2.7-1.7-3.8-2.9l0.6-1c0.2-0.2,0.4-0.3,0.6-0.3c0.1,0,0.3,0.1,0.5,0.3
		c0.2,0.2,0.4,0.4,0.7,0.6c0.3,0.3,0.6,0.5,1,0.8c0.4,0.3,0.9,0.6,1.4,0.8c0.5,0.3,1.2,0.5,1.8,0.6c0.7,0.2,1.5,0.3,2.4,0.3
		c1.2,0,2.3-0.2,3.3-0.6c1-0.4,1.8-0.9,2.4-1.5c0.7-0.6,1.2-1.4,1.5-2.3c0.3-0.9,0.5-1.8,0.5-2.8c0-1.1-0.2-2-0.7-2.7
		c-0.4-0.7-1-1.3-1.8-1.8c-0.7-0.5-1.5-0.9-2.5-1.2c-0.9-0.3-1.9-0.6-2.8-0.9c-1-0.3-1.9-0.6-2.8-1s-1.7-0.9-2.5-1.4
		c-0.7-0.6-1.3-1.3-1.8-2.2c-0.4-0.9-0.7-2-0.7-3.3c0-1,0.2-2,0.6-3c0.4-1,1-1.8,1.7-2.5c0.8-0.7,1.7-1.3,2.8-1.8
		c1.1-0.4,2.4-0.7,3.8-0.7c1.6,0,3,0.3,4.3,0.8c1.3,0.5,2.4,1.3,3.5,2.3L644.4-126.3z"/>
	<path class="st0" d="M414.5-99.1H430v0.5h-16V-129h0.5V-99.1z"/>
	<path class="st0" d="M437.5-98.6H437V-129h0.5V-98.6z"/>
	<path class="st0" d="M468-100l8.1,8.5h-0.5c-0.1,0-0.2,0-0.3-0.1c-0.1,0-0.1-0.1-0.4-0.4l-7.6-8.1"/>
	<path class="st0" d="M494.2-98.7c1.6,0,3.1-0.3,4.4-0.9c1.3-0.6,2.4-1.4,3.3-2.4c0.9-1,1.6-2.2,2.1-3.6c0.5-1.4,0.7-2.8,0.7-4.4
		V-129h0.5v19.1c0,1.6-0.3,3.1-0.8,4.5c-0.5,1.4-1.2,2.7-2.2,3.7c-1,1.1-2.1,1.9-3.5,2.5c-1.4,0.6-2.9,0.9-4.6,0.9
		c-1.7,0-3.2-0.3-4.6-0.9c-1.4-0.6-2.5-1.5-3.5-2.5c-1-1.1-1.7-2.3-2.2-3.7c-0.5-1.4-0.8-2.9-0.8-4.5V-129h0.5v19.1
		c0,1.6,0.2,3,0.7,4.4c0.5,1.4,1.2,2.6,2.1,3.6c0.9,1,2,1.8,3.3,2.4C491.1-99,492.6-98.7,494.2-98.7z"/>
	<path class="st0" d="M516.8-98.6h-0.5V-129h0.5V-98.6z"/>
	<path class="st0" d="M553.1-113.8c0,2.4-0.3,4.5-1,6.4c-0.7,1.9-1.7,3.5-2.9,4.8c-1.2,1.3-2.7,2.3-4.4,3c-1.7,0.7-3.6,1-5.7,1
		h-10.9V-129H539c2.1,0,4,0.3,5.7,1c1.7,0.7,3.2,1.7,4.4,3c1.2,1.3,2.2,2.9,2.9,4.8C552.7-118.3,553.1-116.2,553.1-113.8z
		 M552.5-113.8c0-2.4-0.3-4.5-1-6.3s-1.6-3.4-2.8-4.6c-1.2-1.3-2.6-2.2-4.3-2.9c-1.7-0.7-3.5-1-5.5-1h-10.3V-99H539
		c2,0,3.8-0.3,5.5-1c1.7-0.7,3.1-1.6,4.3-2.9c1.2-1.3,2.1-2.8,2.8-4.6C552.2-109.3,552.5-111.4,552.5-113.8z"/>
	<path class="st1" d="M475-112.5c0,8.6-6.3,14.2-14.1,14.2s-14.1-5.6-14.1-14.2s14.1-21.6,14.1-21.6S475-121,475-112.5z"/>
	<g>
		<path d="M516.7-83.4v1.8h-1.3v-5.4h1.9c0.4,0,0.7,0,1,0.1c0.3,0.1,0.5,0.2,0.7,0.4c0.2,0.2,0.3,0.3,0.4,0.6
			c0.1,0.2,0.1,0.5,0.1,0.7c0,0.3,0,0.5-0.1,0.7c-0.1,0.2-0.2,0.4-0.4,0.6c-0.2,0.2-0.4,0.3-0.7,0.4c-0.3,0.1-0.6,0.1-1,0.1H516.7z
			 M516.7-84.4h0.7c0.3,0,0.6-0.1,0.7-0.2c0.1-0.2,0.2-0.4,0.2-0.7c0-0.1,0-0.2-0.1-0.3c0-0.1-0.1-0.2-0.2-0.3
			c-0.1-0.1-0.2-0.1-0.3-0.2c-0.1,0-0.3-0.1-0.4-0.1h-0.7V-84.4z"/>
		<path d="M528.5-84.3c0,0.4-0.1,0.8-0.2,1.1c-0.1,0.3-0.3,0.6-0.6,0.9c-0.2,0.3-0.5,0.4-0.9,0.6c-0.3,0.1-0.7,0.2-1.2,0.2
			c-0.4,0-0.8-0.1-1.2-0.2c-0.3-0.1-0.6-0.3-0.9-0.6c-0.2-0.3-0.4-0.5-0.6-0.9c-0.1-0.3-0.2-0.7-0.2-1.1c0-0.4,0.1-0.8,0.2-1.1
			c0.1-0.3,0.3-0.6,0.6-0.9c0.2-0.2,0.5-0.4,0.9-0.6c0.3-0.1,0.7-0.2,1.2-0.2c0.4,0,0.8,0.1,1.2,0.2c0.3,0.1,0.6,0.3,0.9,0.6
			c0.2,0.2,0.4,0.5,0.6,0.9C528.5-85.1,528.5-84.7,528.5-84.3z M527.2-84.3c0-0.3,0-0.5-0.1-0.7c-0.1-0.2-0.2-0.4-0.3-0.5
			c-0.1-0.1-0.3-0.3-0.5-0.3c-0.2-0.1-0.4-0.1-0.6-0.1c-0.2,0-0.5,0-0.7,0.1c-0.2,0.1-0.4,0.2-0.5,0.3c-0.1,0.1-0.2,0.3-0.3,0.5
			s-0.1,0.5-0.1,0.7c0,0.3,0,0.5,0.1,0.7c0.1,0.2,0.2,0.4,0.3,0.5c0.1,0.1,0.3,0.3,0.5,0.3c0.2,0.1,0.4,0.1,0.7,0.1
			c0.2,0,0.5,0,0.6-0.1c0.2-0.1,0.3-0.2,0.5-0.3c0.1-0.1,0.2-0.3,0.3-0.5C527.2-83.8,527.2-84.1,527.2-84.3z"/>
		<path d="M531.7-87.1h1.1c0.1,0,0.2,0,0.3,0.1c0.1,0,0.1,0.1,0.1,0.2l0.7,2.8c0,0.1,0,0.2,0.1,0.3c0,0.1,0,0.2,0.1,0.3
			c0-0.1,0.1-0.2,0.1-0.3s0.1-0.2,0.1-0.3l0.9-2.8c0-0.1,0.1-0.1,0.1-0.2c0.1-0.1,0.2-0.1,0.3-0.1h0.4c0.1,0,0.2,0,0.3,0.1
			c0.1,0,0.1,0.1,0.1,0.2l0.9,2.8c0,0.1,0.1,0.2,0.1,0.3c0,0.1,0.1,0.2,0.1,0.3c0-0.1,0-0.2,0.1-0.3c0-0.1,0-0.2,0.1-0.3l0.7-2.8
			c0-0.1,0.1-0.1,0.1-0.2c0.1-0.1,0.2-0.1,0.3-0.1h1l-1.7,5.4h-1.1l-1-3.4c0-0.1,0-0.1-0.1-0.2c0-0.1,0-0.1-0.1-0.2
			c0,0.1,0,0.1-0.1,0.2c0,0.1,0,0.1-0.1,0.2l-1,3.4h-1.1L531.7-87.1z"/>
		<path d="M546.6-87.1v1h-2.2v1.3h1.7v0.9h-1.7v1.3h2.2v1h-3.5v-5.4H546.6z"/>
		<path d="M551.6-83.6v2h-1.3v-5.4h1.8c0.4,0,0.7,0,1,0.1c0.3,0.1,0.5,0.2,0.7,0.3c0.2,0.1,0.3,0.3,0.4,0.5c0.1,0.2,0.1,0.4,0.1,0.6
			c0,0.2,0,0.3-0.1,0.5c0,0.2-0.1,0.3-0.2,0.4c-0.1,0.1-0.2,0.3-0.3,0.4c-0.1,0.1-0.3,0.2-0.5,0.3c0.1,0,0.2,0.1,0.2,0.2
			c0.1,0.1,0.1,0.1,0.2,0.2l1.2,1.9h-1.1c-0.2,0-0.4-0.1-0.5-0.2l-0.9-1.6c0-0.1-0.1-0.1-0.1-0.1c-0.1,0-0.1,0-0.2,0H551.6z
			 M551.6-84.5h0.5c0.2,0,0.3,0,0.4-0.1c0.1,0,0.2-0.1,0.3-0.2c0.1-0.1,0.1-0.2,0.2-0.3c0-0.1,0.1-0.2,0.1-0.3
			c0-0.2-0.1-0.4-0.2-0.6c-0.2-0.1-0.4-0.2-0.7-0.2h-0.5V-84.5z"/>
		<path d="M561.8-87.1v1h-2.2v1.3h1.7v0.9h-1.7v1.3h2.2v1h-3.5v-5.4H561.8z"/>
		<path d="M570.4-84.3c0,0.4-0.1,0.8-0.2,1.1c-0.1,0.3-0.3,0.6-0.6,0.9s-0.5,0.4-0.9,0.6c-0.3,0.1-0.7,0.2-1.2,0.2h-2.1v-5.4h2.1
			c0.4,0,0.8,0.1,1.2,0.2c0.3,0.1,0.6,0.3,0.9,0.6s0.4,0.5,0.6,0.9C570.3-85.1,570.4-84.7,570.4-84.3z M569.1-84.3
			c0-0.3,0-0.5-0.1-0.7s-0.2-0.4-0.3-0.6c-0.1-0.2-0.3-0.3-0.5-0.3c-0.2-0.1-0.4-0.1-0.6-0.1h-0.8v3.5h0.8c0.2,0,0.5,0,0.6-0.1
			s0.3-0.2,0.5-0.3c0.1-0.2,0.2-0.3,0.3-0.6S569.1-84.1,569.1-84.3z"/>
		<path d="M578.4-81.6v-5.4h2c0.4,0,0.7,0,1,0.1c0.3,0.1,0.5,0.2,0.6,0.3c0.2,0.1,0.3,0.3,0.4,0.5c0.1,0.2,0.1,0.4,0.1,0.6
			c0,0.1,0,0.2-0.1,0.4c0,0.1-0.1,0.2-0.2,0.3c-0.1,0.1-0.2,0.2-0.3,0.3c-0.1,0.1-0.3,0.2-0.4,0.2c0.4,0.1,0.6,0.2,0.8,0.4
			c0.2,0.2,0.3,0.4,0.3,0.8c0,0.2,0,0.4-0.1,0.6c-0.1,0.2-0.2,0.4-0.4,0.5c-0.2,0.1-0.4,0.3-0.6,0.3c-0.3,0.1-0.5,0.1-0.9,0.1H578.4
			z M579.7-84.8h0.7c0.1,0,0.3,0,0.4,0c0.1,0,0.2-0.1,0.3-0.1c0.1,0,0.1-0.1,0.2-0.2c0-0.1,0.1-0.2,0.1-0.3c0-0.1,0-0.2,0-0.3
			c0-0.1-0.1-0.2-0.1-0.2c-0.1-0.1-0.2-0.1-0.3-0.1s-0.2,0-0.4,0h-0.7V-84.8z M579.7-83.9v1.4h0.9c0.2,0,0.3,0,0.4-0.1
			c0.1,0,0.2-0.1,0.2-0.2c0.1-0.1,0.1-0.1,0.1-0.2c0-0.1,0-0.2,0-0.3c0-0.1,0-0.2,0-0.3c0-0.1-0.1-0.1-0.1-0.2
			c-0.1-0.1-0.1-0.1-0.3-0.1c-0.1,0-0.2,0-0.4,0H579.7z"/>
		<path d="M589-83.7v2.1h-1.3v-2.1l-2-3.4h1.1c0.1,0,0.2,0,0.3,0.1c0.1,0.1,0.1,0.1,0.2,0.2l0.8,1.6c0.1,0.1,0.1,0.2,0.2,0.4
			c0.1,0.1,0.1,0.2,0.1,0.3c0-0.1,0.1-0.2,0.1-0.3c0.1-0.1,0.1-0.2,0.2-0.3l0.8-1.6c0,0,0-0.1,0.1-0.1c0,0,0.1-0.1,0.1-0.1
			c0,0,0.1,0,0.1-0.1c0,0,0.1,0,0.1,0h1.1L589-83.7z"/>
		<path d="M598.8-81.6v-5.4h2c0.4,0,0.7,0,1,0.1c0.3,0.1,0.5,0.2,0.6,0.3c0.2,0.1,0.3,0.3,0.4,0.5c0.1,0.2,0.1,0.4,0.1,0.6
			c0,0.1,0,0.2-0.1,0.4c0,0.1-0.1,0.2-0.2,0.3c-0.1,0.1-0.2,0.2-0.3,0.3c-0.1,0.1-0.3,0.2-0.4,0.2c0.4,0.1,0.6,0.2,0.8,0.4
			c0.2,0.2,0.3,0.4,0.3,0.8c0,0.2,0,0.4-0.1,0.6c-0.1,0.2-0.2,0.4-0.4,0.5c-0.2,0.1-0.4,0.3-0.6,0.3c-0.3,0.1-0.5,0.1-0.9,0.1H598.8
			z M600.1-84.8h0.7c0.1,0,0.3,0,0.4,0c0.1,0,0.2-0.1,0.3-0.1c0.1,0,0.1-0.1,0.2-0.2c0-0.1,0.1-0.2,0.1-0.3c0-0.1,0-0.2,0-0.3
			c0-0.1-0.1-0.2-0.1-0.2c-0.1-0.1-0.2-0.1-0.3-0.1s-0.2,0-0.4,0h-0.7V-84.8z M600.1-83.9v1.4h0.9c0.2,0,0.3,0,0.4-0.1
			c0.1,0,0.2-0.1,0.2-0.2c0.1-0.1,0.1-0.1,0.1-0.2c0-0.1,0-0.2,0-0.3c0-0.1,0-0.2,0-0.3c0-0.1-0.1-0.1-0.1-0.2
			c-0.1-0.1-0.1-0.1-0.3-0.1c-0.1,0-0.2,0-0.4,0H600.1z"/>
		<path d="M611.8-81.6h-1c-0.1,0-0.2,0-0.3-0.1c-0.1-0.1-0.1-0.1-0.1-0.2l-0.3-0.9H608l-0.3,0.9c0,0.1-0.1,0.1-0.1,0.2
			c-0.1,0.1-0.2,0.1-0.3,0.1h-1l2.1-5.4h1.3L611.8-81.6z M608.3-83.7h1.5l-0.5-1.5c0-0.1-0.1-0.2-0.1-0.3c0-0.1-0.1-0.3-0.1-0.4
			c0,0.2-0.1,0.3-0.1,0.4c0,0.1-0.1,0.2-0.1,0.3L608.3-83.7z"/>
		<path d="M616-87c0,0,0.1,0,0.1,0c0,0,0.1,0,0.1,0.1c0,0,0.1,0.1,0.1,0.1l2.6,3.3c0-0.1,0-0.2,0-0.3c0-0.1,0-0.2,0-0.3v-2.9h1.1
			v5.4h-0.7c-0.1,0-0.2,0-0.2,0c-0.1,0-0.1-0.1-0.2-0.2l-2.6-3.2c0,0.1,0,0.2,0,0.3c0,0.1,0,0.2,0,0.3v2.9h-1.1v-5.4h0.7
			C615.9-87.1,616-87,616-87z"/>
		<path d="M627.5-83C627.5-83,627.5-83,627.5-83c0.1,0,0.1,0,0.2,0.1l0.5,0.5c-0.2,0.3-0.5,0.5-0.8,0.6c-0.3,0.1-0.7,0.2-1.2,0.2
			c-0.4,0-0.8-0.1-1.1-0.2s-0.6-0.3-0.8-0.6c-0.2-0.2-0.4-0.5-0.5-0.9c-0.1-0.3-0.2-0.7-0.2-1.1c0-0.4,0.1-0.8,0.2-1.1
			c0.1-0.3,0.3-0.6,0.6-0.9c0.2-0.2,0.5-0.4,0.9-0.6c0.3-0.1,0.7-0.2,1.2-0.2c0.2,0,0.4,0,0.6,0.1c0.2,0,0.3,0.1,0.5,0.1
			c0.2,0.1,0.3,0.1,0.4,0.2c0.1,0.1,0.2,0.2,0.4,0.3l-0.4,0.6c0,0-0.1,0.1-0.1,0.1c0,0-0.1,0-0.2,0c0,0-0.1,0-0.1,0
			c0,0-0.1,0-0.1-0.1c0,0-0.1-0.1-0.1-0.1c-0.1,0-0.1-0.1-0.2-0.1c-0.1,0-0.2-0.1-0.3-0.1c-0.1,0-0.2,0-0.3,0c-0.2,0-0.4,0-0.6,0.1
			c-0.2,0.1-0.4,0.2-0.5,0.3c-0.1,0.2-0.2,0.3-0.3,0.5c-0.1,0.2-0.1,0.5-0.1,0.7c0,0.3,0,0.5,0.1,0.7c0.1,0.2,0.2,0.4,0.3,0.5
			c0.1,0.1,0.3,0.3,0.5,0.3c0.2,0.1,0.4,0.1,0.6,0.1c0.1,0,0.2,0,0.3,0c0.1,0,0.2,0,0.3-0.1c0.1,0,0.2-0.1,0.2-0.1
			c0.1,0,0.1-0.1,0.2-0.2c0,0,0.1,0,0.1-0.1C627.4-83,627.4-83,627.5-83z"/>
		<path d="M637.1-84.3c0,0.4-0.1,0.8-0.2,1.1c-0.1,0.3-0.3,0.6-0.6,0.9c-0.2,0.3-0.5,0.4-0.9,0.6s-0.7,0.2-1.2,0.2
			c-0.4,0-0.8-0.1-1.2-0.2s-0.6-0.3-0.9-0.6c-0.2-0.3-0.4-0.5-0.6-0.9c-0.1-0.3-0.2-0.7-0.2-1.1c0-0.4,0.1-0.8,0.2-1.1
			c0.1-0.3,0.3-0.6,0.6-0.9c0.2-0.2,0.5-0.4,0.9-0.6s0.7-0.2,1.2-0.2c0.4,0,0.8,0.1,1.2,0.2c0.3,0.1,0.6,0.3,0.9,0.6
			c0.2,0.2,0.4,0.5,0.6,0.9C637-85.1,637.1-84.7,637.1-84.3z M635.8-84.3c0-0.3,0-0.5-0.1-0.7s-0.2-0.4-0.3-0.5
			c-0.1-0.1-0.3-0.3-0.5-0.3c-0.2-0.1-0.4-0.1-0.6-0.1c-0.2,0-0.5,0-0.7,0.1c-0.2,0.1-0.4,0.2-0.5,0.3c-0.1,0.1-0.2,0.3-0.3,0.5
			s-0.1,0.5-0.1,0.7c0,0.3,0,0.5,0.1,0.7c0.1,0.2,0.2,0.4,0.3,0.5c0.1,0.1,0.3,0.3,0.5,0.3c0.2,0.1,0.4,0.1,0.7,0.1
			c0.2,0,0.5,0,0.6-0.1c0.2-0.1,0.3-0.2,0.5-0.3c0.1-0.1,0.2-0.3,0.3-0.5C635.8-83.8,635.8-84.1,635.8-84.3z"/>
		<path d="M641.9-83.6v2h-1.3v-5.4h1.8c0.4,0,0.7,0,1,0.1c0.3,0.1,0.5,0.2,0.7,0.3c0.2,0.1,0.3,0.3,0.4,0.5c0.1,0.2,0.1,0.4,0.1,0.6
			c0,0.2,0,0.3-0.1,0.5c0,0.2-0.1,0.3-0.2,0.4c-0.1,0.1-0.2,0.3-0.3,0.4c-0.1,0.1-0.3,0.2-0.5,0.3c0.1,0,0.2,0.1,0.2,0.2
			c0.1,0.1,0.1,0.1,0.2,0.2l1.2,1.9H644c-0.2,0-0.4-0.1-0.5-0.2l-0.9-1.6c0-0.1-0.1-0.1-0.1-0.1c-0.1,0-0.1,0-0.2,0H641.9z
			 M641.9-84.5h0.5c0.2,0,0.3,0,0.4-0.1c0.1,0,0.2-0.1,0.3-0.2c0.1-0.1,0.1-0.2,0.2-0.3c0-0.1,0.1-0.2,0.1-0.3
			c0-0.2-0.1-0.4-0.2-0.6c-0.2-0.1-0.4-0.2-0.7-0.2h-0.5V-84.5z"/>
	</g>
</g>
<g>
	<path d="M761.2,23.6v7.8h-68.1v52.3h56.7v7.6h-56.7v53.9h68.1v7.8h-77.5V23.6H761.2z"/>
	<path d="M907,88.2c0,10-1.5,19.1-4.5,27.2c-3,8.1-7.2,15.1-12.6,20.8c-5.4,5.8-11.9,10.2-19.5,13.3c-7.6,3.1-15.9,4.7-25.1,4.7
		c-9.1,0-17.4-1.6-24.9-4.7c-7.6-3.1-14-7.6-19.5-13.3c-5.4-5.8-9.6-12.7-12.7-20.8c-3-8.1-4.5-17.2-4.5-27.2c0-9.9,1.5-19,4.5-27.1
		c3-8.1,7.2-15.1,12.7-20.8c5.4-5.8,11.9-10.2,19.5-13.4c7.6-3.2,15.9-4.8,24.9-4.8c9.2,0,17.6,1.6,25.1,4.7
		c7.6,3.1,14,7.6,19.5,13.4c5.4,5.8,9.6,12.7,12.6,20.9C905.5,69.2,907,78.3,907,88.2z M897.3,88.2c0-9-1.2-17.1-3.7-24.3
		c-2.5-7.2-6-13.3-10.6-18.3c-4.5-5-10-8.8-16.4-11.5c-6.4-2.7-13.5-4-21.3-4c-7.7,0-14.7,1.3-21.1,4c-6.4,2.7-11.8,6.5-16.4,11.5
		c-4.6,5-8.2,11.1-10.7,18.3c-2.5,7.2-3.8,15.3-3.8,24.3c0,9.1,1.3,17.2,3.8,24.4c2.5,7.2,6.1,13.2,10.7,18.2
		c4.6,5,10.1,8.8,16.4,11.4c6.4,2.6,13.4,3.9,21.1,3.9c7.8,0,14.9-1.3,21.3-3.9c6.4-2.6,11.9-6.4,16.4-11.4
		c4.5-5,8.1-11.1,10.6-18.2C896.1,105.4,897.3,97.3,897.3,88.2z"/>
	<path d="M1000,39.3c-0.5,1-1.3,1.6-2.4,1.6c-0.8,0-1.8-0.6-3.1-1.7c-1.3-1.1-3-2.4-5.1-3.7c-2.1-1.4-4.8-2.6-8-3.8
		c-3.2-1.2-7.2-1.7-11.9-1.7c-4.7,0-8.8,0.7-12.4,2c-3.6,1.3-6.6,3.2-9,5.5c-2.4,2.3-4.2,5-5.5,8c-1.3,3-1.9,6.2-1.9,9.6
		c0,4.4,0.9,8,2.8,10.9c1.9,2.9,4.3,5.3,7.4,7.3c3.1,2,6.5,3.7,10.4,5.1c3.9,1.4,7.9,2.7,11.9,4.1c4.1,1.3,8.1,2.8,11.9,4.4
		c3.9,1.6,7.3,3.6,10.4,6.1c3,2.4,5.5,5.4,7.4,9c1.9,3.6,2.8,8,2.8,13.3c0,5.4-0.9,10.5-2.8,15.3c-1.9,4.8-4.6,8.9-8.1,12.5
		c-3.5,3.5-7.9,6.3-13,8.4c-5.1,2-11,3.1-17.5,3.1c-8.5,0-15.9-1.5-22-4.5c-6.2-3-11.5-7.1-16.2-12.4l2.6-4c0.7-0.9,1.6-1.4,2.6-1.4
		c0.5,0,1.2,0.4,2.1,1.1c0.9,0.7,1.9,1.6,3.1,2.7c1.2,1.1,2.7,2.2,4.4,3.5c1.7,1.2,3.7,2.4,5.9,3.5c2.3,1.1,4.8,2,7.8,2.7
		c2.9,0.7,6.3,1.1,10,1.1c5.1,0,9.7-0.8,13.7-2.3c4-1.6,7.4-3.7,10.2-6.4c2.8-2.7,4.9-5.9,6.4-9.5c1.5-3.7,2.2-7.6,2.2-11.8
		c0-4.6-0.9-8.3-2.8-11.3c-1.9-3-4.3-5.4-7.4-7.4s-6.5-3.6-10.4-5s-7.9-2.7-11.9-3.9c-4.1-1.3-8.1-2.7-11.9-4.3s-7.3-3.6-10.4-6.1
		c-3.1-2.5-5.5-5.5-7.4-9.2c-1.9-3.7-2.8-8.3-2.8-13.8c0-4.3,0.8-8.5,2.5-12.5c1.6-4,4.1-7.6,7.2-10.6c3.2-3.1,7.1-5.5,11.8-7.4
		c4.7-1.9,10-2.8,16-2.8c6.7,0,12.7,1.1,18.1,3.2c5.3,2.1,10.2,5.4,14.6,9.8L1000,39.3z"/>
	<path class="st0" d="M33.5,154h65.2v2H31.3V28.1h2.2V154z"/>
	<path class="st0" d="M130.1,156h-2.2V28.1h2.2V156z"/>
	<path class="st0" d="M258.3,150l33.9,35.8h-2c-0.5,0-0.9-0.1-1.1-0.2c-0.3-0.2-0.5-0.3-1.8-1.6l-32-34.1"/>
	<path class="st0" d="M368.6,155.6c6.9,0,13.1-1.2,18.5-3.7c5.5-2.5,10.1-5.8,13.8-10.1c3.8-4.3,6.7-9.3,8.7-15c2-5.7,3-11.8,3-18.4
		V28.1h2.2v80.4c0,6.8-1.1,13.1-3.2,19.1c-2.1,6-5.2,11.2-9.2,15.6c-4,4.4-8.9,8-14.6,10.6c-5.7,2.6-12.1,3.9-19.2,3.9
		c-7.1,0-13.5-1.3-19.2-3.9c-5.7-2.6-10.6-6.1-14.6-10.6c-4-4.4-7.1-9.7-9.2-15.6c-2.1-6-3.2-12.3-3.2-19.1V28.1h2.2v80.2
		c0,6.5,1,12.7,3,18.4c2,5.8,4.9,10.8,8.7,15.1c3.8,4.3,8.4,7.7,13.8,10.1C355.6,154.4,361.7,155.6,368.6,155.6z"/>
	<path class="st0" d="M463.7,156h-2.2V28.1h2.2V156z"/>
	<path class="st0" d="M616.1,92c0,10.1-1.4,19.1-4.3,27c-2.9,7.9-6.9,14.6-12.2,20.1c-5.2,5.5-11.4,9.7-18.7,12.5
		c-7.3,2.9-15.3,4.3-24,4.3h-45.7V28.1h45.7c8.8,0,16.8,1.4,24,4.3c7.3,2.9,13.5,7,18.7,12.5c5.2,5.5,9.3,12.2,12.2,20.1
		C614.6,72.9,616.1,81.9,616.1,92z M613.7,92c0-9.9-1.4-18.7-4.2-26.5c-2.8-7.7-6.7-14.2-11.7-19.5c-5-5.3-11-9.3-18-12.1
		c-7-2.7-14.7-4.1-23.1-4.1h-43.5v124.3h43.5c8.4,0,16.1-1.4,23.1-4.1c7-2.7,13-6.8,18-12.1c5-5.3,8.9-11.8,11.7-19.5
		C612.3,110.8,613.7,102,613.7,92z"/>
	<path class="st1" d="M287.7,97.7c0,36.1-26.5,59.6-59.1,59.6s-59.1-23.5-59.1-59.6S228.5,7,228.5,7S287.7,61.6,287.7,97.7z"/>
	<g>
		<path d="M462.9,219.7v7.6h-5.3v-22.9h8.1c1.6,0,3,0.2,4.2,0.6c1.2,0.4,2.1,0.9,2.9,1.6c0.7,0.7,1.3,1.5,1.7,2.4
			c0.4,0.9,0.5,1.9,0.5,3c0,1.1-0.2,2.2-0.5,3.1c-0.4,1-0.9,1.8-1.7,2.5c-0.8,0.7-1.7,1.2-2.9,1.6c-1.2,0.4-2.5,0.6-4.1,0.6H462.9z
			 M462.9,215.7h2.8c1.4,0,2.4-0.3,3-1c0.6-0.7,0.9-1.6,0.9-2.8c0-0.5-0.1-1-0.2-1.4c-0.2-0.4-0.4-0.8-0.7-1.1
			c-0.3-0.3-0.7-0.5-1.2-0.7s-1.1-0.3-1.7-0.3h-2.8V215.7z"/>
		<path d="M512.8,215.9c0,1.7-0.3,3.2-0.9,4.6c-0.6,1.4-1.4,2.7-2.4,3.7c-1,1.1-2.3,1.9-3.7,2.5c-1.5,0.6-3.1,0.9-4.9,0.9
			c-1.8,0-3.4-0.3-4.9-0.9c-1.5-0.6-2.7-1.4-3.8-2.5s-1.8-2.3-2.4-3.7c-0.6-1.4-0.9-3-0.9-4.6c0-1.7,0.3-3.2,0.9-4.6
			c0.6-1.4,1.4-2.7,2.4-3.7c1-1,2.3-1.9,3.8-2.5c1.5-0.6,3.1-0.9,4.9-0.9c1.8,0,3.4,0.3,4.9,0.9c1.5,0.6,2.7,1.4,3.7,2.5
			c1,1,1.8,2.3,2.4,3.7C512.5,212.7,512.8,214.3,512.8,215.9z M507.4,215.9c0-1.1-0.1-2.1-0.4-3.1c-0.3-0.9-0.7-1.7-1.3-2.3
			c-0.5-0.6-1.2-1.1-2-1.4c-0.8-0.3-1.7-0.5-2.7-0.5c-1,0-1.9,0.2-2.7,0.5c-0.8,0.3-1.5,0.8-2,1.4c-0.5,0.6-1,1.4-1.3,2.3
			c-0.3,0.9-0.4,1.9-0.4,3.1c0,1.1,0.1,2.2,0.4,3.1c0.3,0.9,0.7,1.7,1.3,2.3c0.5,0.6,1.2,1.1,2,1.4c0.8,0.3,1.7,0.5,2.7,0.5
			c1,0,1.9-0.2,2.7-0.5c0.8-0.3,1.5-0.8,2-1.4c0.5-0.6,1-1.4,1.3-2.3C507.2,218.1,507.4,217.1,507.4,215.9z"/>
		<path d="M526.2,204.5h4.5c0.5,0,0.8,0.1,1.2,0.3c0.3,0.2,0.5,0.5,0.6,0.8l3.1,11.9c0.1,0.4,0.2,0.8,0.3,1.2
			c0.1,0.4,0.2,0.9,0.2,1.4c0.1-0.5,0.2-1,0.3-1.4c0.1-0.4,0.2-0.8,0.4-1.2l3.7-11.9c0.1-0.3,0.3-0.6,0.6-0.8
			c0.3-0.2,0.7-0.4,1.1-0.4h1.6c0.5,0,0.8,0.1,1.1,0.3c0.3,0.2,0.5,0.5,0.6,0.8l3.7,11.9c0.1,0.4,0.2,0.8,0.4,1.2
			c0.1,0.4,0.2,0.9,0.3,1.3c0.1-0.5,0.2-0.9,0.3-1.3c0.1-0.4,0.2-0.8,0.3-1.2l3.1-11.9c0.1-0.3,0.3-0.6,0.6-0.8
			c0.3-0.2,0.7-0.3,1.1-0.3h4.2l-7.1,22.9h-4.8l-4.3-14.2c-0.1-0.2-0.1-0.5-0.2-0.7c-0.1-0.3-0.2-0.5-0.2-0.8
			c-0.1,0.3-0.1,0.6-0.2,0.8c-0.1,0.3-0.2,0.5-0.2,0.7l-4.4,14.2h-4.8L526.2,204.5z"/>
		<path d="M588.9,204.5v4.1h-9.4v5.3h7.2v3.9h-7.2v5.5h9.4v4.1h-14.7v-22.9H588.9z"/>
		<path d="M609.7,218.9v8.5h-5.3v-22.9h7.4c1.7,0,3.1,0.2,4.2,0.5c1.2,0.3,2.1,0.8,2.9,1.4c0.7,0.6,1.3,1.3,1.6,2.1
			c0.3,0.8,0.5,1.7,0.5,2.7c0,0.7-0.1,1.4-0.3,2.1c-0.2,0.7-0.5,1.3-0.9,1.8c-0.4,0.6-0.9,1.1-1.4,1.5c-0.6,0.4-1.2,0.8-2,1.1
			c0.4,0.2,0.7,0.4,1,0.7c0.3,0.3,0.6,0.6,0.8,1l4.9,8h-4.8c-0.9,0-1.5-0.3-1.9-1l-3.8-6.6c-0.2-0.3-0.4-0.5-0.6-0.6
			c-0.2-0.1-0.5-0.2-1-0.2H609.7z M609.7,215.2h2.1c0.7,0,1.3-0.1,1.8-0.3c0.5-0.2,0.9-0.4,1.2-0.8c0.3-0.3,0.6-0.7,0.7-1.1
			c0.1-0.4,0.2-0.9,0.2-1.4c0-1-0.3-1.8-1-2.4c-0.7-0.6-1.7-0.8-3-0.8h-2.1V215.2z"/>
		<path d="M652.6,204.5v4.1h-9.4v5.3h7.2v3.9h-7.2v5.5h9.4v4.1h-14.7v-22.9H652.6z"/>
		<path d="M689,215.9c0,1.7-0.3,3.2-0.9,4.6c-0.6,1.4-1.4,2.6-2.4,3.6c-1,1-2.3,1.8-3.7,2.4c-1.5,0.6-3.1,0.9-4.9,0.9h-8.9v-22.9
			h8.9c1.8,0,3.4,0.3,4.9,0.9c1.5,0.6,2.7,1.4,3.7,2.4c1,1,1.8,2.2,2.4,3.6C688.7,212.7,689,214.3,689,215.9z M683.5,215.9
			c0-1.1-0.1-2.1-0.4-3.1c-0.3-0.9-0.7-1.7-1.3-2.3c-0.6-0.6-1.2-1.1-2-1.5c-0.8-0.3-1.7-0.5-2.7-0.5h-3.5v14.7h3.5
			c1,0,1.9-0.2,2.7-0.5c0.8-0.3,1.5-0.8,2-1.5c0.5-0.6,1-1.4,1.3-2.3C683.4,218.1,683.5,217.1,683.5,215.9z"/>
		<path d="M722.7,227.4v-22.9h8.4c1.6,0,2.9,0.1,4,0.4c1.1,0.3,2,0.7,2.7,1.2c0.7,0.5,1.2,1.2,1.5,1.9c0.3,0.8,0.5,1.6,0.5,2.6
			c0,0.5-0.1,1-0.2,1.5c-0.1,0.5-0.4,0.9-0.7,1.3c-0.3,0.4-0.7,0.8-1.2,1.1c-0.5,0.3-1.1,0.6-1.8,0.9c1.5,0.4,2.6,1,3.3,1.8
			c0.7,0.8,1.1,1.9,1.1,3.2c0,1-0.2,1.9-0.6,2.7c-0.4,0.8-0.9,1.6-1.7,2.2c-0.7,0.6-1.6,1.1-2.7,1.5c-1.1,0.4-2.3,0.5-3.7,0.5H722.7
			z M728,214.1h2.8c0.6,0,1.1,0,1.6-0.1c0.5-0.1,0.9-0.2,1.2-0.4c0.3-0.2,0.6-0.5,0.8-0.9c0.2-0.4,0.3-0.8,0.3-1.4
			c0-0.5-0.1-1-0.2-1.4c-0.1-0.4-0.3-0.6-0.6-0.9c-0.3-0.2-0.6-0.4-1.1-0.5c-0.4-0.1-0.9-0.1-1.5-0.1H728V214.1z M728,217.7v5.7h3.7
			c0.7,0,1.3-0.1,1.7-0.3c0.4-0.2,0.8-0.4,1-0.7c0.3-0.3,0.4-0.6,0.5-1c0.1-0.4,0.1-0.7,0.1-1.1c0-0.4-0.1-0.8-0.2-1.1
			c-0.1-0.3-0.3-0.6-0.6-0.9c-0.3-0.2-0.6-0.4-1.1-0.5c-0.4-0.1-1-0.2-1.7-0.2H728z"/>
		<path d="M767.3,218.7v8.7H762v-8.7l-8.3-14.2h4.7c0.5,0,0.8,0.1,1.1,0.3c0.3,0.2,0.5,0.5,0.7,0.8l3.2,6.7c0.3,0.5,0.5,1,0.7,1.5
			c0.2,0.4,0.4,0.9,0.6,1.3c0.2-0.4,0.3-0.9,0.6-1.3c0.2-0.4,0.5-0.9,0.7-1.5l3.2-6.7c0.1-0.1,0.2-0.3,0.3-0.4
			c0.1-0.1,0.2-0.3,0.4-0.4c0.1-0.1,0.3-0.2,0.5-0.3c0.2-0.1,0.4-0.1,0.6-0.1h4.7L767.3,218.7z"/>
		<path d="M808.3,227.4v-22.9h8.4c1.6,0,2.9,0.1,4,0.4c1.1,0.3,2,0.7,2.7,1.2c0.7,0.5,1.2,1.2,1.5,1.9c0.3,0.8,0.5,1.6,0.5,2.6
			c0,0.5-0.1,1-0.2,1.5c-0.1,0.5-0.4,0.9-0.7,1.3c-0.3,0.4-0.7,0.8-1.2,1.1c-0.5,0.3-1.1,0.6-1.8,0.9c1.5,0.4,2.6,1,3.3,1.8
			c0.7,0.8,1.1,1.9,1.1,3.2c0,1-0.2,1.9-0.6,2.7s-0.9,1.6-1.7,2.2c-0.7,0.6-1.6,1.1-2.7,1.5c-1.1,0.4-2.3,0.5-3.7,0.5H808.3z
			 M813.6,214.1h2.8c0.6,0,1.1,0,1.6-0.1c0.5-0.1,0.9-0.2,1.2-0.4c0.3-0.2,0.6-0.5,0.8-0.9c0.2-0.4,0.3-0.8,0.3-1.4
			c0-0.5-0.1-1-0.2-1.4c-0.1-0.4-0.3-0.6-0.6-0.9c-0.3-0.2-0.6-0.4-1.1-0.5c-0.4-0.1-0.9-0.1-1.5-0.1h-3.1V214.1z M813.6,217.7v5.7
			h3.7c0.7,0,1.3-0.1,1.7-0.3c0.4-0.2,0.8-0.4,1-0.7c0.3-0.3,0.4-0.6,0.5-1c0.1-0.4,0.1-0.7,0.1-1.1c0-0.4-0.1-0.8-0.2-1.1
			c-0.1-0.3-0.3-0.6-0.6-0.9c-0.3-0.2-0.6-0.4-1.1-0.5c-0.4-0.1-1-0.2-1.7-0.2H813.6z"/>
		<path d="M862.8,227.4h-4.1c-0.5,0-0.8-0.1-1.1-0.3c-0.3-0.2-0.5-0.5-0.6-0.8l-1.3-4h-8.7l-1.3,4c-0.1,0.3-0.3,0.6-0.6,0.8
			c-0.3,0.2-0.7,0.4-1.1,0.4h-4.1l8.9-22.9h5.4L862.8,227.4z M848.1,218.6h6.3l-2.1-6.3c-0.1-0.4-0.3-0.9-0.5-1.4
			c-0.2-0.5-0.4-1.1-0.5-1.8c-0.2,0.6-0.3,1.2-0.5,1.8s-0.3,1-0.5,1.4L848.1,218.6z"/>
		<path d="M880.6,204.5c0.2,0,0.3,0.1,0.4,0.1c0.1,0.1,0.2,0.1,0.4,0.2c0.1,0.1,0.2,0.2,0.4,0.4l10.9,13.7c0-0.4-0.1-0.9-0.1-1.3
			c0-0.4,0-0.8,0-1.2v-12.1h4.7v22.9h-2.8c-0.4,0-0.8-0.1-1-0.2c-0.3-0.1-0.6-0.4-0.8-0.7l-10.8-13.6c0,0.4,0.1,0.8,0.1,1.2
			c0,0.4,0,0.7,0,1.1v12.3h-4.7v-22.9h2.8C880.2,204.5,880.4,204.5,880.6,204.5z"/>
		<path d="M928.9,221.4c0.1,0,0.3,0,0.4,0.1c0.1,0,0.2,0.1,0.4,0.2l2.1,2.2c-0.9,1.2-2.1,2.1-3.5,2.7c-1.4,0.6-3,0.9-4.9,0.9
			c-1.7,0-3.3-0.3-4.7-0.9c-1.4-0.6-2.5-1.4-3.5-2.5c-1-1-1.7-2.3-2.2-3.7c-0.5-1.4-0.8-3-0.8-4.7c0-1.7,0.3-3.3,0.9-4.7
			c0.6-1.4,1.4-2.7,2.5-3.7c1.1-1,2.3-1.8,3.8-2.4c1.5-0.6,3.1-0.9,4.9-0.9c0.9,0,1.7,0.1,2.4,0.2c0.8,0.2,1.5,0.4,2.1,0.6
			c0.7,0.3,1.3,0.6,1.8,1c0.6,0.4,1,0.8,1.5,1.2l-1.8,2.4c-0.1,0.1-0.3,0.3-0.4,0.4c-0.2,0.1-0.4,0.2-0.7,0.2c-0.2,0-0.4,0-0.5-0.1
			c-0.2-0.1-0.3-0.2-0.5-0.3c-0.2-0.1-0.4-0.3-0.6-0.4s-0.5-0.3-0.8-0.4c-0.3-0.1-0.7-0.2-1.1-0.3c-0.4-0.1-0.9-0.1-1.5-0.1
			c-1,0-1.8,0.2-2.6,0.5s-1.5,0.8-2,1.5c-0.6,0.6-1,1.4-1.3,2.3c-0.3,0.9-0.5,1.9-0.5,3c0,1.2,0.2,2.2,0.5,3.1
			c0.3,0.9,0.8,1.7,1.3,2.3c0.5,0.6,1.2,1.1,1.9,1.4c0.7,0.3,1.5,0.5,2.4,0.5c0.5,0,0.9,0,1.3-0.1c0.4,0,0.8-0.1,1.1-0.2
			c0.3-0.1,0.7-0.3,1-0.4c0.3-0.2,0.6-0.4,0.9-0.7c0.1-0.1,0.3-0.2,0.4-0.3C928.6,221.5,928.7,221.4,928.9,221.4z"/>
		<path d="M969.3,215.9c0,1.7-0.3,3.2-0.9,4.6c-0.6,1.4-1.4,2.7-2.4,3.7c-1,1.1-2.3,1.9-3.7,2.5s-3.1,0.9-4.9,0.9s-3.4-0.3-4.9-0.9
			c-1.5-0.6-2.7-1.4-3.8-2.5s-1.8-2.3-2.4-3.7c-0.6-1.4-0.9-3-0.9-4.6c0-1.7,0.3-3.2,0.9-4.6c0.6-1.4,1.4-2.7,2.4-3.7
			c1-1,2.3-1.9,3.8-2.5c1.5-0.6,3.1-0.9,4.9-0.9s3.4,0.3,4.9,0.9c1.5,0.6,2.7,1.4,3.7,2.5c1,1,1.8,2.3,2.4,3.7
			C969,212.7,969.3,214.3,969.3,215.9z M963.9,215.9c0-1.1-0.1-2.1-0.4-3.1c-0.3-0.9-0.7-1.7-1.3-2.3c-0.5-0.6-1.2-1.1-2-1.4
			c-0.8-0.3-1.7-0.5-2.7-0.5c-1,0-1.9,0.2-2.7,0.5c-0.8,0.3-1.5,0.8-2,1.4c-0.6,0.6-1,1.4-1.3,2.3c-0.3,0.9-0.4,1.9-0.4,3.1
			c0,1.1,0.1,2.2,0.4,3.1c0.3,0.9,0.7,1.7,1.3,2.3c0.5,0.6,1.2,1.1,2,1.4c0.8,0.3,1.7,0.5,2.7,0.5c1,0,1.9-0.2,2.7-0.5
			c0.8-0.3,1.5-0.8,2-1.4c0.5-0.6,1-1.4,1.3-2.3C963.7,218.1,963.9,217.1,963.9,215.9z"/>
		<path d="M989.7,218.9v8.5h-5.3v-22.9h7.4c1.7,0,3.1,0.2,4.2,0.5c1.2,0.3,2.1,0.8,2.9,1.4c0.7,0.6,1.3,1.3,1.6,2.1
			c0.3,0.8,0.5,1.7,0.5,2.7c0,0.7-0.1,1.4-0.3,2.1c-0.2,0.7-0.5,1.3-0.9,1.8c-0.4,0.6-0.9,1.1-1.4,1.5c-0.6,0.4-1.2,0.8-2,1.1
			c0.4,0.2,0.7,0.4,1,0.7c0.3,0.3,0.6,0.6,0.8,1l4.9,8h-4.8c-0.9,0-1.5-0.3-1.9-1l-3.8-6.6c-0.2-0.3-0.4-0.5-0.6-0.6
			c-0.2-0.1-0.5-0.2-1-0.2H989.7z M989.7,215.2h2.1c0.7,0,1.3-0.1,1.8-0.3c0.5-0.2,0.9-0.4,1.2-0.8c0.3-0.3,0.6-0.7,0.7-1.1
			c0.1-0.4,0.2-0.9,0.2-1.4c0-1-0.3-1.8-1-2.4c-0.7-0.6-1.7-0.8-3-0.8h-2.1V215.2z"/>
	</g>
</g>
</svg>
